{"glyphs":{"0":{"ha":694,"x_min":0,"x_max":0,"o":"m 44 476 b 343 969 44 824 217 969 b 650 476 476 969 650 819 b 350 -17 650 125 468 -17 b 44 476 201 -17 44 146 m 178 476 b 346 25 178 236 211 25 b 515 476 460 25 515 169 b 346 928 515 724 481 928 b 178 476 232 928 178 783 "},"1":{"ha":694,"x_min":0,"x_max":0,"o":"m 293 757 b 242 863 293 825 281 863 b 174 840 222 863 199 854 l 160 863 l 385 975 l 411 975 l 411 139 b 529 25 411 46 439 25 l 529 0 l 174 0 l 174 25 b 293 139 278 25 293 61 l 293 757 "},"2":{"ha":694,"x_min":0,"x_max":0,"o":"m 68 710 b 338 969 107 890 189 969 b 599 719 481 969 599 856 b 172 103 599 563 506 422 l 479 103 b 632 178 563 103 603 124 l 658 178 l 590 0 l 39 0 l 39 25 b 481 654 382 333 481 500 b 285 860 481 800 363 860 b 93 710 197 860 136 811 "},"3":{"ha":694,"x_min":0,"x_max":0,"o":"m 94 765 b 342 969 133 888 217 969 b 557 776 464 969 557 886 b 435 564 557 700 524 642 b 604 311 544 518 604 429 b 225 -17 604 119 447 -17 b 79 57 133 -17 79 11 b 132 108 79 83 104 108 b 339 40 201 108 244 40 b 504 233 432 40 504 124 b 232 471 504 369 406 479 l 232 497 b 447 714 371 517 447 613 b 285 871 447 806 379 871 b 118 756 211 871 157 833 "},"4":{"ha":694,"x_min":0,"x_max":0,"o":"m 531 969 l 531 343 l 660 343 l 660 240 l 531 240 l 531 0 l 413 0 l 413 240 l 22 240 l 22 349 l 457 969 m 81 343 l 413 343 l 413 817 l 410 817 "},"5":{"ha":694,"x_min":0,"x_max":0,"o":"m 626 954 l 575 846 l 294 846 l 231 708 b 611 339 469 668 611 526 b 238 -17 611 147 438 -17 b 86 75 156 -17 86 25 b 132 124 86 101 107 124 b 322 54 201 124 226 54 b 524 274 426 54 524 160 b 119 592 524 472 326 590 l 294 954 "},"6":{"ha":694,"x_min":0,"x_max":0,"o":"m 629 947 b 214 528 456 946 274 786 b 411 600 281 578 340 600 b 649 325 549 600 649 485 b 365 -17 649 136 522 -17 b 65 382 194 -17 65 156 b 581 975 65 726 346 975 l 629 975 m 206 483 b 194 368 197 435 194 406 b 381 26 194 251 236 26 b 531 246 472 26 531 114 b 353 539 531 368 494 539 b 206 483 304 539 267 525 "},"7":{"ha":694,"x_min":0,"x_max":0,"o":"m 642 954 l 335 -17 l 254 -17 l 535 846 l 254 846 b 82 731 181 846 132 813 l 58 739 l 144 954 "},"8":{"ha":694,"x_min":0,"x_max":0,"o":"m 267 486 b 92 747 142 574 92 650 b 340 975 92 874 199 975 b 592 765 476 975 592 876 b 400 531 592 683 535 613 b 611 226 551 408 611 331 b 349 -18 611 89 497 -18 b 81 221 199 -18 81 89 b 267 486 81 311 124 372 m 190 782 b 365 556 190 725 229 656 b 497 763 461 625 497 682 b 340 928 497 867 439 928 b 190 782 256 928 190 865 m 518 179 b 299 461 518 265 444 339 b 183 233 218 389 183 322 b 357 25 183 111 256 25 b 518 179 449 25 518 92 "},"9":{"ha":694,"x_min":0,"x_max":0,"o":"m 71 11 b 486 431 244 13 426 172 b 289 358 419 381 360 358 b 51 633 151 358 51 474 b 335 975 51 822 178 975 b 635 576 506 975 635 803 b 119 -17 635 232 354 -17 l 71 -17 m 494 475 b 506 590 503 524 506 553 b 319 932 506 707 464 932 b 169 713 228 932 169 844 b 347 419 169 590 206 419 b 494 475 396 419 433 433 "}," ":{"ha":347,"x_min":0,"x_max":0,"o":""},"!":{"ha":376,"x_min":0,"x_max":0,"o":"m 204 251 l 179 251 l 122 793 b 115 876 121 813 115 864 b 193 975 115 933 151 975 b 272 876 240 975 272 935 b 265 788 272 857 269 818 m 111 58 b 188 135 111 100 146 135 b 265 57 231 135 265 100 b 188 -19 265 15 231 -19 b 111 58 146 -19 111 15 "},"\"":{"ha":564,"x_min":0,"x_max":0,"o":"m 356 779 b 340 892 349 817 340 854 b 406 975 340 946 363 975 b 476 903 446 975 476 944 b 463 801 476 881 468 831 l 421 579 l 392 579 m 104 779 b 89 892 97 817 89 854 b 154 975 89 946 111 975 b 225 903 194 975 225 944 b 211 801 225 881 217 831 l 169 579 l 140 579 "},"#":{"ha":926,"x_min":0,"x_max":0,"o":"m 336 964 l 419 964 l 363 689 l 650 689 l 707 964 l 790 964 l 733 689 l 865 689 l 865 606 l 715 606 l 664 356 l 865 356 l 865 272 l 647 272 l 590 0 l 507 0 l 564 272 l 276 272 l 219 0 l 136 0 l 193 272 l 60 272 l 60 356 l 210 356 l 261 606 l 60 606 l 60 689 l 279 689 m 346 606 l 293 356 l 581 356 l 632 606 "},"$":{"ha":694,"x_min":0,"x_max":0,"o":"m 363 1011 l 363 968 b 589 910 433 964 517 942 l 589 699 l 564 699 b 363 922 560 843 467 913 l 363 565 l 483 488 b 633 244 581 425 633 340 b 363 -11 633 104 525 1 l 363 -99 l 319 -99 l 319 -11 b 72 43 229 -7 153 10 l 72 243 l 99 243 b 319 31 108 118 215 35 l 319 447 b 72 742 150 539 72 631 b 319 968 72 867 169 956 l 319 1011 m 319 922 b 176 781 235 913 176 854 b 319 593 176 729 204 664 m 363 32 b 532 206 465 47 532 117 b 363 421 532 285 488 340 "},"%":{"ha":1143,"x_min":0,"x_max":0,"o":"m 754 238 b 936 485 754 419 867 485 b 1117 238 1017 485 1117 408 b 936 -8 1117 56 1008 -8 b 754 238 861 -8 754 61 m 835 238 b 936 14 835 88 868 14 b 1036 238 1003 14 1036 88 b 936 463 1036 389 1003 463 b 835 238 868 463 835 389 m 28 722 b 210 969 28 904 140 969 b 390 722 290 969 390 893 b 210 476 390 540 282 476 b 28 722 135 476 28 546 m 108 722 b 210 499 108 572 142 499 b 310 722 276 499 310 572 b 210 947 310 874 276 947 b 108 722 142 947 108 874 m 924 974 l 260 -39 l 200 -39 l 864 974 "},"&":{"ha":1071,"x_min":0,"x_max":0,"o":"m 997 594 b 889 542 953 592 928 581 b 694 221 842 494 801 351 b 913 90 776 128 839 90 b 1025 189 967 90 1013 131 l 1047 174 b 840 -21 1029 60 943 -21 b 597 115 760 -21 696 14 b 283 -21 497 22 399 -21 b 46 197 147 -21 46 72 b 329 538 46 328 129 428 b 276 747 290 615 276 675 b 506 975 276 875 376 975 b 693 813 611 975 693 904 b 479 560 693 708 617 621 b 660 263 503 504 590 368 b 769 515 726 342 769 442 b 706 594 769 561 747 590 l 706 619 l 997 619 m 456 604 b 611 803 565 660 611 717 b 507 926 611 878 569 926 b 406 794 443 926 406 878 b 456 604 406 728 419 672 m 561 154 b 350 488 485 242 401 383 b 190 256 247 436 190 354 b 365 67 190 154 272 67 b 561 154 431 67 507 100 "},"’":{"ha":376,"x_min":0,"x_max":0,"o":"m 89 653 b 240 832 199 690 240 768 b 219 860 240 847 232 860 b 163 839 207 860 192 839 b 89 913 122 839 89 872 b 178 996 89 960 128 996 b 290 856 243 996 290 936 b 89 626 290 749 225 675 "},"(":{"ha":463,"x_min":0,"x_max":0,"o":"m 442 972 b 194 353 271 871 194 678 b 442 -269 194 24 272 -172 l 442 -294 b 61 351 197 -161 61 63 b 442 996 61 638 201 875 "},")":{"ha":463,"x_min":0,"x_max":0,"o":"m 21 -271 b 268 349 192 -169 268 24 b 21 971 268 678 190 874 l 21 996 b 401 350 265 863 401 639 b 21 -294 401 64 261 -174 "},"*":{"ha":694,"x_min":0,"x_max":0,"o":"m 321 715 b 99 828 265 753 99 742 b 150 878 99 856 122 878 b 339 738 221 878 251 792 b 293 938 339 817 293 868 b 349 1001 293 971 319 1001 b 403 938 378 1001 403 972 b 361 738 403 860 365 813 b 546 878 457 806 476 878 b 596 828 572 878 596 854 b 374 715 596 747 456 753 b 596 600 440 674 596 689 b 549 550 596 572 574 550 b 361 692 478 550 436 640 b 403 499 360 632 403 553 b 350 431 403 461 379 431 b 293 497 318 431 293 461 b 339 692 293 557 336 621 b 151 550 265 650 224 550 b 99 599 124 550 99 572 b 321 715 99 689 249 671 "},"+":{"ha":926,"x_min":0,"x_max":0,"o":"m 421 518 l 421 843 l 506 843 l 506 518 l 831 518 l 831 433 l 506 433 l 506 108 l 421 108 l 421 433 l 96 433 l 96 518 "},",":{"ha":376,"x_min":0,"x_max":0,"o":"m 86 -206 b 238 -26 196 -168 238 -90 b 217 1 238 -11 229 1 b 194 -8 211 1 204 -4 b 160 -19 186 -14 175 -19 b 86 54 119 -19 86 14 b 175 138 86 101 125 138 b 288 -3 240 138 288 78 b 86 -232 288 -110 222 -183 "},"-":{"ha":463,"x_min":0,"x_max":0,"o":"m 404 378 l 404 268 l 60 268 l 60 378 "},".":{"ha":376,"x_min":0,"x_max":0,"o":"m 189 135 b 265 58 232 135 265 101 b 189 -19 265 15 232 -19 b 111 58 146 -19 111 15 b 189 135 111 101 146 135 "},"/":{"ha":390,"x_min":0,"x_max":0,"o":"m 390 996 l 92 -21 l 0 -21 l 299 996 "},":":{"ha":376,"x_min":0,"x_max":0,"o":"m 111 583 b 189 660 111 626 146 660 b 265 583 232 660 265 626 b 189 506 265 540 232 506 b 111 583 146 506 111 540 m 189 135 b 265 58 232 135 265 101 b 189 -19 265 15 232 -19 b 111 58 146 -19 111 15 b 189 135 111 101 146 135 "},";":{"ha":376,"x_min":0,"x_max":0,"o":"m 86 -206 b 238 -26 196 -168 238 -90 b 217 1 238 -11 229 1 b 194 -8 211 1 204 -4 b 160 -19 186 -14 175 -19 b 86 54 119 -19 86 14 b 175 138 86 101 125 138 b 288 -3 240 138 288 78 b 86 -232 288 -110 222 -183 m 111 583 b 189 660 111 626 146 660 b 265 583 232 660 265 626 b 189 506 265 540 232 506 b 111 583 146 506 111 540 "},"<":{"ha":928,"x_min":0,"x_max":0,"o":"m 96 433 l 96 513 l 832 822 l 832 726 l 214 474 l 832 221 l 832 124 "},"=":{"ha":926,"x_min":0,"x_max":0,"o":"m 831 678 l 831 593 l 96 593 l 96 678 m 831 357 l 831 272 l 96 272 l 96 357 "},">":{"ha":928,"x_min":0,"x_max":0,"o":"m 96 221 l 715 474 l 96 726 l 96 822 l 832 513 l 832 433 l 96 124 "},"?":{"ha":535,"x_min":0,"x_max":0,"o":"m 507 757 b 383 492 507 668 478 604 b 278 226 288 376 278 329 l 253 226 b 382 733 231 453 382 547 b 232 933 382 851 319 933 b 119 840 175 933 119 888 b 164 724 119 811 164 760 b 113 667 164 694 138 667 b 32 769 69 667 32 715 b 271 975 32 883 139 975 b 507 757 401 975 507 879 m 190 58 b 268 135 190 101 225 135 b 344 58 311 135 344 101 b 268 -19 344 15 311 -19 b 190 58 225 -19 190 15 "},"@":{"ha":1274,"x_min":0,"x_max":0,"o":"m 876 389 l 835 243 b 813 131 822 197 813 158 b 863 79 813 103 835 79 b 1032 176 915 79 985 119 b 1150 521 1107 267 1150 394 b 711 939 1150 765 968 939 b 308 763 556 939 415 878 b 129 293 194 639 129 468 b 660 -249 129 -25 349 -249 b 1206 126 907 -249 1103 -114 l 1244 126 b 1129 -81 1217 39 1185 -17 b 657 -290 1011 -217 840 -290 b 65 311 317 -290 65 -35 b 707 975 65 683 349 975 b 1192 510 996 975 1192 786 b 1043 125 1192 367 1135 219 b 818 31 986 67 900 31 b 714 124 750 31 714 63 b 725 221 714 153 717 175 l 722 224 b 615 104 676 164 653 138 b 458 31 563 57 506 31 b 335 188 389 31 335 100 b 463 504 335 283 385 407 b 708 664 540 601 636 664 b 796 632 742 664 775 651 b 825 569 811 615 818 601 l 828 569 l 849 644 l 956 660 m 718 632 b 565 518 669 632 621 596 b 443 208 496 421 443 285 b 522 113 443 156 479 113 b 654 188 564 113 608 138 b 761 351 706 244 742 296 b 801 535 786 421 801 489 b 718 632 801 590 767 632 "},"A":{"ha":1071,"x_min":0,"x_max":0,"o":"m 918 126 b 1051 25 957 38 986 25 l 1051 0 l 660 0 l 660 25 l 661 25 b 760 92 724 25 760 49 b 742 157 760 108 756 126 l 669 321 l 285 321 l 200 126 b 192 89 194 114 192 100 b 294 25 192 47 228 25 l 294 0 l 19 0 l 19 25 b 149 160 79 33 104 60 l 515 996 l 540 996 m 308 374 l 647 374 l 478 761 "},"B":{"ha":926,"x_min":0,"x_max":0,"o":"m 481 954 b 822 700 654 954 822 869 b 647 492 822 597 756 518 l 647 489 b 864 256 778 468 864 369 b 529 0 864 125 761 0 l 57 0 l 57 25 b 196 175 186 24 196 75 l 196 769 b 57 929 196 886 186 929 l 57 954 m 346 528 b 463 513 406 515 431 513 b 660 704 574 513 660 597 b 435 908 660 821 564 908 b 346 899 406 908 382 904 m 346 67 b 461 49 389 54 419 49 b 690 253 599 49 690 131 b 410 467 690 383 581 467 b 346 463 389 467 374 465 "},"C":{"ha":999,"x_min":0,"x_max":0,"o":"m 947 653 l 924 653 b 590 922 897 829 746 922 b 232 454 392 922 232 790 b 611 39 232 161 426 39 b 947 228 774 39 894 139 l 968 214 b 563 -21 876 58 739 -21 b 58 464 281 -21 58 192 b 579 975 58 749 289 975 b 847 913 733 975 814 913 b 900 975 868 913 892 936 l 924 975 "},"D":{"ha":1143,"x_min":0,"x_max":0,"o":"m 44 954 l 572 954 b 1086 478 933 954 1086 692 b 529 0 1086 200 854 0 l 44 0 l 44 25 b 185 146 161 25 185 65 l 185 813 b 44 929 185 900 147 929 m 335 69 b 485 49 382 56 428 49 b 913 469 743 49 913 215 b 490 901 913 725 739 901 b 335 878 436 901 382 893 "},"E":{"ha":926,"x_min":0,"x_max":0,"o":"m 818 743 l 794 743 b 635 899 774 857 722 899 l 338 899 l 338 531 l 583 531 b 708 669 675 531 708 578 l 733 669 l 733 333 l 708 333 b 578 475 708 433 675 475 l 338 475 l 338 131 b 396 56 338 78 354 56 l 635 56 b 867 238 728 56 810 103 l 896 238 l 818 0 l 50 0 l 50 25 b 188 146 163 24 188 64 l 188 822 b 50 929 188 897 147 931 l 50 954 l 807 954 "},"F":{"ha":926,"x_min":0,"x_max":0,"o":"m 879 749 l 853 749 b 639 907 839 860 778 907 l 343 907 l 343 531 l 575 531 b 714 665 672 531 721 558 l 739 665 l 739 340 l 714 340 b 590 475 718 433 682 475 l 343 475 l 343 143 b 481 25 343 57 378 24 l 481 0 l 60 0 l 60 25 b 193 146 165 22 193 65 l 193 818 b 60 929 193 901 149 929 l 60 954 l 869 954 "},"G":{"ha":1143,"x_min":0,"x_max":0,"o":"m 997 671 l 972 671 b 618 922 931 835 767 922 b 233 476 417 922 233 769 b 640 32 233 211 419 32 b 854 101 718 32 779 51 l 854 372 b 721 488 854 444 831 486 l 721 513 l 1131 513 l 1131 488 b 1004 342 1022 481 1004 449 l 1004 79 b 628 -21 872 7 788 -21 b 60 447 249 -21 60 229 b 608 975 60 742 301 975 b 901 910 769 975 871 910 b 946 975 925 910 942 935 l 972 975 "},"H":{"ha":1143,"x_min":0,"x_max":0,"o":"m 336 144 b 476 25 336 51 372 25 l 476 0 l 49 0 l 49 25 b 186 146 160 25 186 63 l 186 810 b 49 929 186 885 163 932 l 49 954 l 476 954 l 476 929 b 336 808 361 932 336 890 l 336 531 l 806 531 l 806 811 b 664 929 806 892 778 932 l 664 954 l 1094 954 l 1094 929 b 956 808 985 931 956 894 l 956 144 b 1094 25 956 49 992 25 l 1094 0 l 664 0 l 664 25 b 806 146 774 24 806 54 l 806 475 l 336 475 "},"I":{"ha":535,"x_min":0,"x_max":0,"o":"m 49 954 l 488 954 l 488 929 b 343 808 386 931 343 910 l 343 144 b 488 25 343 51 376 25 l 488 0 l 49 0 l 49 25 b 193 146 167 25 193 53 l 193 810 b 49 929 193 894 164 931 "},"J":{"ha":608,"x_min":0,"x_max":0,"o":"m 153 954 l 579 954 l 579 929 b 444 808 474 931 444 899 l 444 294 b 189 -21 444 97 346 -21 b 31 83 96 -21 31 24 b 100 154 31 124 61 154 b 244 29 185 154 182 29 b 294 175 282 29 294 68 l 294 811 b 153 929 294 894 264 931 "},"K":{"ha":1143,"x_min":0,"x_max":0,"o":"m 986 929 b 796 832 935 929 876 913 b 492 535 746 782 668 692 l 849 182 b 1136 25 983 49 1033 24 l 1136 0 l 644 0 l 644 25 b 728 74 697 25 728 42 b 683 142 728 94 721 106 l 349 472 l 349 144 b 485 25 349 72 367 25 l 485 0 l 56 0 l 56 25 b 199 146 175 25 199 61 l 199 810 b 56 929 199 897 165 931 l 56 954 l 492 954 l 492 929 b 349 808 389 929 349 908 l 349 490 b 721 886 643 732 721 842 b 636 929 721 915 696 928 l 636 954 l 986 954 "},"L":{"ha":926,"x_min":0,"x_max":0,"o":"m 819 0 l 58 0 l 58 25 b 201 146 178 22 201 64 l 201 810 b 58 929 201 886 178 932 l 58 954 l 486 954 l 486 929 b 351 808 381 931 351 899 l 351 118 b 407 63 351 76 365 63 l 601 63 b 876 263 735 63 807 93 l 900 254 "},"M":{"ha":1375,"x_min":0,"x_max":0,"o":"m 1315 954 l 1315 929 b 1175 810 1206 932 1175 896 l 1175 143 b 1315 25 1175 75 1190 22 l 1315 0 l 885 0 l 885 25 b 1025 146 1004 21 1025 71 l 1025 800 l 1022 800 l 656 0 l 631 0 l 264 800 l 261 800 l 261 144 b 394 25 261 60 286 26 l 394 0 l 60 0 l 60 25 b 199 146 172 22 199 65 l 199 788 b 60 929 199 871 167 918 l 60 954 l 351 954 l 690 225 l 1025 954 "},"N":{"ha":1143,"x_min":0,"x_max":0,"o":"m 1125 929 l 1088 929 b 975 794 988 929 975 914 l 975 -11 l 956 -11 l 274 757 l 274 161 b 413 25 274 60 311 24 l 413 0 l 68 0 l 68 25 b 213 143 178 22 213 61 l 213 818 b 18 929 163 900 107 929 l 18 954 l 296 954 l 913 250 l 913 819 b 811 929 913 900 892 929 l 774 929 l 774 954 l 1125 954 "},"O":{"ha":1071,"x_min":0,"x_max":0,"o":"m 51 476 b 535 975 51 753 267 975 b 1019 476 803 975 1019 753 b 535 -21 1019 201 803 -21 b 51 476 267 -21 51 201 m 225 476 b 535 32 225 207 346 32 b 846 476 724 32 846 207 b 535 922 846 747 724 922 b 225 476 346 922 225 747 "},"P":{"ha":839,"x_min":0,"x_max":0,"o":"m 321 144 b 464 25 321 49 360 25 l 464 0 l 35 0 l 35 25 b 171 146 157 24 171 76 l 171 810 b 35 929 171 892 142 932 l 35 954 l 465 954 b 814 688 644 954 814 851 b 506 424 814 536 682 424 b 321 456 449 424 393 433 m 321 504 b 439 476 365 486 403 476 b 640 682 560 476 640 560 b 422 901 640 810 550 901 b 321 883 390 901 358 896 "},"Q":{"ha":1071,"x_min":0,"x_max":0,"o":"m 976 -274 b 399 0 811 -274 515 -136 b 51 476 242 39 51 221 b 535 975 51 753 267 975 b 1019 476 803 975 1019 753 b 658 -4 1019 213 825 35 b 1008 -247 733 -143 872 -244 l 1008 -274 m 225 476 b 535 32 225 207 346 32 b 846 476 724 32 846 207 b 535 922 846 747 724 922 b 225 476 346 922 225 747 "},"R":{"ha":1071,"x_min":0,"x_max":0,"o":"m 818 167 b 1029 25 893 72 953 32 l 1029 0 l 781 0 l 421 447 l 329 447 l 329 143 b 464 25 329 78 347 22 l 464 0 l 47 0 l 47 25 b 179 138 157 24 179 71 l 179 819 b 47 929 179 889 149 929 l 47 954 l 529 954 b 822 706 694 954 822 847 b 581 461 822 590 743 501 m 329 494 l 368 494 b 649 701 543 494 649 567 b 436 906 649 817 556 906 b 329 881 400 906 374 900 "},"S":{"ha":767,"x_min":0,"x_max":0,"o":"m 649 658 l 622 658 b 369 922 607 807 496 922 b 204 782 278 922 204 860 b 250 682 204 738 221 711 b 622 428 311 621 531 519 b 706 243 681 369 706 303 b 413 -21 706 97 575 -21 b 168 29 290 -21 217 29 b 111 -21 143 29 125 14 l 86 -21 l 86 300 l 111 300 b 386 32 140 146 229 32 b 568 183 492 32 568 96 b 514 304 568 226 550 268 b 151 554 422 396 218 488 b 81 728 101 604 81 668 b 350 975 81 868 197 975 b 483 950 408 975 450 963 b 569 924 518 936 544 924 b 622 975 593 924 610 940 l 649 975 "},"T":{"ha":926,"x_min":0,"x_max":0,"o":"m 217 893 b 60 738 126 893 67 838 l 35 738 l 42 954 l 885 954 l 892 738 l 865 738 b 694 893 853 835 803 893 l 538 893 l 538 135 b 676 25 538 50 582 25 l 676 0 l 249 0 l 249 25 b 388 146 367 24 388 71 l 388 893 "},"U":{"ha":1143,"x_min":0,"x_max":0,"o":"m 44 954 l 471 954 l 471 929 b 339 808 372 928 339 901 l 339 290 b 600 39 339 142 429 39 b 910 347 808 39 910 143 l 910 813 b 767 929 910 894 874 933 l 767 954 l 1117 954 l 1117 929 b 969 808 1000 931 969 900 l 969 331 b 588 -21 969 133 839 -21 b 189 315 307 -21 189 124 l 189 769 b 44 929 189 892 172 932 "},"V":{"ha":999,"x_min":0,"x_max":0,"o":"m 421 954 l 421 929 b 317 867 342 931 317 913 b 347 761 317 842 331 801 l 561 233 l 783 821 b 792 864 789 836 792 850 b 693 929 792 904 758 926 l 693 954 l 983 954 l 983 929 b 808 711 913 925 868 868 l 531 -21 l 504 -21 l 181 782 b 17 929 135 896 103 924 l 17 954 "},"W":{"ha":1375,"x_min":0,"x_max":0,"o":"m 375 954 l 375 929 b 290 868 318 928 290 907 b 310 789 290 846 296 828 l 503 251 l 506 251 l 658 676 l 604 818 b 476 929 572 906 549 924 l 476 954 l 856 954 l 856 929 b 761 861 792 925 761 903 b 785 760 761 836 769 800 l 981 251 l 1164 769 b 1188 867 1186 831 1188 843 b 1088 929 1188 910 1150 929 l 1088 954 l 1364 954 l 1364 929 b 1224 754 1303 928 1271 888 l 950 -19 l 924 -19 l 692 590 l 469 -19 l 447 -19 l 142 811 b 10 929 101 910 88 926 l 10 954 "},"X":{"ha":1071,"x_min":0,"x_max":0,"o":"m 465 954 l 465 929 b 369 876 406 929 369 914 b 401 806 369 858 381 835 l 563 582 l 758 817 b 785 875 776 839 785 857 b 690 929 785 911 753 931 l 690 954 l 1018 954 l 1018 929 b 817 796 944 935 900 897 l 599 532 l 883 136 b 1053 25 953 40 990 25 l 1053 0 l 629 0 l 629 25 b 722 75 692 25 722 43 b 686 153 722 96 711 121 l 499 414 l 272 140 b 239 76 247 110 239 96 b 331 25 239 40 267 24 l 331 0 l 18 0 l 18 25 b 215 164 68 25 118 47 l 465 463 l 222 796 b 18 929 144 901 107 926 l 18 954 "},"Y":{"ha":1071,"x_min":0,"x_max":0,"o":"m 1054 929 b 835 758 976 929 926 903 l 613 410 l 613 144 b 758 25 613 49 649 25 l 758 0 l 315 0 l 315 25 b 463 160 438 22 463 60 l 463 400 l 168 838 b 17 929 114 918 90 929 l 17 954 l 440 954 l 440 929 b 332 892 351 929 332 918 b 376 789 332 868 347 833 l 586 474 l 768 758 b 832 889 814 831 832 868 b 732 929 832 918 794 929 l 732 954 l 1054 954 "},"Z":{"ha":926,"x_min":0,"x_max":0,"o":"m 886 954 l 238 60 l 640 60 b 872 254 790 60 826 93 l 896 254 l 853 0 l 29 0 l 29 25 l 661 899 l 349 899 b 140 718 196 899 158 871 l 115 718 l 129 954 "},"[":{"ha":376,"x_min":0,"x_max":0,"o":"m 357 893 l 192 893 l 192 -233 l 357 -233 l 357 -294 l 82 -294 l 82 954 l 357 954 "},"\\":{"ha":390,"x_min":0,"x_max":0,"o":"m 390 -21 l 299 -21 l 0 996 l 92 996 "},"]":{"ha":376,"x_min":0,"x_max":0,"o":"m 294 954 l 294 -294 l 19 -294 l 19 -233 l 185 -233 l 185 893 l 19 893 l 19 954 "},"^":{"ha":651,"x_min":0,"x_max":0,"o":"m 300 954 l 356 954 l 629 467 l 524 467 l 328 814 l 128 467 l 22 467 "},"_":{"ha":694,"x_min":0,"x_max":0,"o":"m -8 -174 l -8 -104 l 703 -104 l 703 -174 "},"‘":{"ha":376,"x_min":0,"x_max":0,"o":"m 288 969 b 136 790 178 932 136 854 b 157 763 136 775 144 763 b 214 783 169 763 185 783 b 288 710 254 783 288 750 b 199 626 288 663 249 626 b 86 767 133 626 86 686 b 288 996 86 874 151 947 "},"a":{"ha":694,"x_min":0,"x_max":0,"o":"m 672 86 b 515 -19 603 8 565 -19 b 426 99 463 -19 419 24 b 199 -19 342 17 271 -19 b 56 138 118 -19 56 50 b 94 249 56 182 68 215 b 240 343 121 283 169 310 b 426 419 299 371 360 397 l 426 479 b 301 631 426 593 392 631 b 194 529 226 631 194 588 b 196 496 194 522 196 504 b 142 439 196 463 174 439 b 82 497 106 439 82 463 b 332 660 82 594 182 660 b 540 489 474 660 540 606 l 540 129 b 581 64 540 82 551 64 b 672 121 608 64 635 81 m 426 382 b 174 174 231 301 174 254 b 278 60 174 110 219 60 b 426 129 325 60 371 81 "},"b":{"ha":767,"x_min":0,"x_max":0,"o":"m 136 763 b 69 897 136 851 128 897 b 51 896 64 897 57 897 b 38 892 44 894 40 893 l 29 915 l 225 996 l 250 996 l 250 533 l 253 533 b 458 660 310 621 376 660 b 719 346 603 660 719 519 b 375 -19 719 143 565 -19 b 136 64 297 -19 224 7 l 136 763 m 250 101 b 404 29 294 54 347 29 b 601 299 513 29 601 149 b 397 561 601 450 515 561 b 250 490 343 561 304 543 "},"c":{"ha":608,"x_min":0,"x_max":0,"o":"m 589 240 b 318 -19 550 83 443 -19 b 33 314 153 -19 33 121 b 350 660 33 515 165 660 b 572 508 467 660 572 588 b 506 454 572 476 544 454 b 447 476 485 454 461 463 b 404 590 424 500 442 553 b 326 618 386 608 363 618 b 144 379 217 618 144 522 b 368 93 144 207 233 93 b 567 250 465 93 536 150 "},"d":{"ha":767,"x_min":0,"x_max":0,"o":"m 632 193 b 692 76 632 103 646 76 b 733 86 706 76 715 79 l 743 64 l 518 -17 l 518 75 b 324 -19 456 10 396 -19 b 44 299 171 -19 44 125 b 371 660 44 493 196 660 b 518 611 425 660 469 646 l 518 808 b 460 897 518 869 499 897 b 442 896 453 897 447 897 b 419 888 436 894 429 892 l 408 911 l 608 996 l 632 996 l 632 193 m 518 426 b 510 501 518 456 515 479 b 356 621 493 569 424 621 b 169 349 253 621 169 499 b 392 58 169 186 268 58 b 518 122 440 58 485 81 "},"e":{"ha":608,"x_min":0,"x_max":0,"o":"m 569 226 b 311 -19 539 74 440 -19 b 39 313 172 -19 39 89 b 326 660 39 521 154 660 b 569 400 471 660 569 554 l 133 400 b 364 90 125 246 221 90 b 549 238 451 90 514 140 m 426 443 b 289 611 422 549 371 611 b 136 443 207 611 146 543 "},"f":{"ha":463,"x_min":0,"x_max":0,"o":"m 139 644 l 139 715 b 393 996 139 878 257 996 b 569 881 486 996 569 940 b 514 825 569 853 543 825 b 344 947 440 825 440 947 b 253 796 271 947 253 886 l 253 644 l 383 644 l 383 601 l 253 601 l 253 154 b 367 25 253 44 276 25 l 367 0 l 33 0 l 33 25 b 139 154 114 25 139 46 l 139 601 l 49 601 l 49 644 "},"g":{"ha":694,"x_min":0,"x_max":0,"o":"m 644 619 b 674 597 669 619 674 617 l 674 572 b 649 554 674 557 671 554 l 549 554 b 585 436 575 514 585 481 b 344 214 585 306 485 214 b 253 228 313 214 288 218 b 197 144 215 194 197 167 b 310 104 197 115 225 104 l 454 104 b 668 -39 579 104 668 50 b 308 -294 668 -175 500 -294 b 44 -164 176 -294 44 -229 b 176 18 44 -132 57 -101 b 107 86 129 33 107 56 b 218 242 107 132 140 179 b 101 432 144 281 101 350 b 353 660 101 561 210 660 b 496 619 407 660 451 647 m 438 -1 b 208 11 307 -1 239 1 b 146 -108 165 -37 146 -74 b 381 -211 146 -179 260 -211 b 625 -72 519 -211 625 -151 b 438 -1 625 -22 581 -1 m 219 490 b 365 249 219 401 253 249 b 467 404 425 249 467 313 b 324 621 467 478 428 621 b 219 490 263 621 219 567 "},"h":{"ha":767,"x_min":0,"x_max":0,"o":"m 136 796 b 74 897 136 868 118 897 b 56 896 67 897 61 897 b 35 889 49 894 43 893 l 26 913 l 225 996 l 250 996 l 250 524 l 253 524 b 472 660 315 610 397 660 b 639 440 571 660 639 582 l 639 154 b 744 25 639 46 664 25 l 744 0 l 422 0 l 422 25 b 525 154 499 25 525 44 l 525 460 b 415 575 525 531 481 575 b 250 489 358 575 311 550 l 250 154 b 361 25 250 43 275 25 l 361 0 l 35 0 l 35 25 b 136 154 113 25 136 49 l 136 796 "},"i":{"ha":376,"x_min":0,"x_max":0,"o":"m 136 479 b 69 568 136 532 115 568 b 54 567 64 568 58 568 b 40 561 50 567 46 564 l 32 586 l 225 660 l 250 660 l 250 154 b 344 25 250 57 271 28 l 344 0 l 32 0 l 32 25 l 33 25 b 136 154 111 25 136 56 l 136 479 m 118 929 b 189 1000 118 968 150 1000 b 261 929 229 1000 261 968 b 189 857 261 889 229 857 b 118 929 150 857 118 889 "},"j":{"ha":376,"x_min":0,"x_max":0,"o":"m 154 469 b 90 572 154 528 138 572 b 71 571 83 572 78 572 b 49 564 65 569 58 568 l 40 589 l 244 660 l 268 660 l 268 32 b 22 -294 268 -179 182 -294 b -101 -225 -50 -294 -101 -265 b -43 -167 -101 -193 -75 -167 b 90 -239 19 -167 47 -239 b 154 -114 139 -239 154 -183 l 154 469 m 133 929 b 204 1000 133 968 165 1000 b 276 929 244 1000 276 968 b 204 857 276 889 244 857 b 133 929 165 857 133 889 "},"k":{"ha":767,"x_min":0,"x_max":0,"o":"m 142 813 b 78 901 142 874 122 901 l 63 901 b 44 896 57 900 51 899 l 36 919 l 232 996 l 256 996 l 256 361 l 454 550 b 479 590 472 567 479 578 b 428 619 479 608 461 619 l 428 644 l 713 644 l 713 619 b 501 528 619 622 568 590 l 364 397 l 538 172 b 742 25 633 49 674 25 l 742 0 l 432 0 l 432 25 b 476 51 461 26 476 35 b 454 100 476 65 469 81 l 258 354 l 256 354 l 256 154 b 364 25 256 44 283 25 l 364 0 l 36 0 l 36 25 b 142 154 114 25 142 42 l 142 813 "},"l":{"ha":376,"x_min":0,"x_max":0,"o":"m 138 797 b 74 896 138 865 117 896 b 57 894 68 896 63 896 b 40 889 53 894 47 892 l 32 913 l 226 996 l 251 996 l 251 153 b 344 25 251 54 272 25 l 344 0 l 32 0 l 32 25 b 138 153 113 25 138 47 l 138 797 "},"m":{"ha":1143,"x_min":0,"x_max":0,"o":"m 129 474 b 63 569 129 533 106 569 b 39 568 56 569 47 569 b 21 563 31 567 24 564 l 11 586 l 219 660 l 243 660 l 243 528 b 460 660 338 632 407 660 b 621 519 544 660 600 613 b 851 660 688 608 761 660 b 1021 440 954 660 1021 582 l 1021 154 b 1126 25 1021 44 1046 25 l 1126 0 l 799 0 l 799 25 b 907 154 879 25 907 39 l 907 454 b 796 576 907 531 863 576 b 628 490 739 576 671 543 b 632 404 629 481 632 422 l 632 154 b 738 25 632 46 657 25 l 738 0 l 408 0 l 408 25 b 518 154 494 25 518 43 l 518 443 b 407 576 518 517 478 576 b 243 492 356 576 294 544 l 243 154 b 346 25 243 51 269 22 l 346 0 l 21 0 l 21 25 b 129 154 106 25 129 44 l 129 474 "},"n":{"ha":767,"x_min":0,"x_max":0,"o":"m 135 485 b 79 568 135 528 119 568 b 58 567 71 568 65 568 b 35 557 51 564 44 561 l 25 583 l 225 660 l 249 660 l 249 524 b 468 660 344 628 396 660 b 638 449 582 660 638 561 l 638 154 b 736 25 638 56 660 28 l 736 0 l 411 0 l 411 25 b 524 154 508 24 524 61 l 524 457 b 414 578 524 521 481 578 b 249 485 358 578 308 550 l 249 154 b 354 25 249 54 272 26 l 354 0 l 35 0 l 35 25 b 135 154 129 32 135 69 l 135 485 "},"o":{"ha":767,"x_min":0,"x_max":0,"o":"m 706 343 b 372 -19 706 147 551 -19 b 63 304 203 -19 63 126 b 396 660 63 496 217 660 b 706 343 563 660 706 514 m 581 285 b 363 611 581 471 488 611 b 188 360 256 611 188 514 b 404 29 188 203 263 29 b 581 285 510 29 581 131 "},"p":{"ha":767,"x_min":0,"x_max":0,"o":"m 139 482 b 78 567 139 532 119 567 b 60 565 71 567 65 567 b 35 558 53 564 46 563 l 24 583 l 229 660 l 253 660 l 253 513 l 256 513 b 472 660 306 599 385 660 b 725 340 613 660 725 518 b 404 -19 725 140 582 -19 b 253 40 344 -19 293 1 l 253 -137 b 369 -269 253 -244 275 -269 l 369 -294 l 24 -294 l 24 -269 b 139 -137 124 -271 139 -235 l 139 482 m 253 181 b 410 24 253 81 325 24 b 607 292 529 24 607 129 b 415 561 607 450 528 561 b 253 469 356 561 303 531 "},"q":{"ha":767,"x_min":0,"x_max":0,"o":"m 633 -139 b 739 -269 633 -249 656 -269 l 739 -294 l 403 -294 l 403 -269 b 519 -139 493 -272 519 -253 l 519 104 l 517 104 b 301 -19 454 25 375 -19 b 51 299 158 -19 51 118 b 378 660 51 501 194 660 b 531 615 433 660 478 647 b 610 660 564 626 588 640 l 633 660 l 633 -139 m 519 467 b 367 617 519 557 463 617 b 169 342 249 617 169 507 b 376 78 169 182 253 78 b 519 144 440 78 476 99 "},"r":{"ha":535,"x_min":0,"x_max":0,"o":"m 143 450 b 82 564 143 539 131 564 b 64 563 75 564 69 564 b 46 556 58 561 53 560 l 38 579 l 232 660 l 257 660 l 257 519 l 260 519 b 433 660 304 604 369 660 b 518 578 478 660 518 619 b 457 518 518 547 488 518 b 360 568 404 518 397 568 b 257 472 318 568 288 529 l 257 154 b 379 25 257 43 281 25 l 379 0 l 38 0 l 38 25 b 143 149 125 22 143 64 l 143 450 "},"s":{"ha":535,"x_min":0,"x_max":0,"o":"m 68 476 b 261 660 68 582 150 660 b 335 649 292 660 314 654 b 390 636 354 642 372 636 b 417 644 400 636 411 640 l 442 644 l 442 449 l 417 449 b 258 621 401 551 339 621 b 147 539 197 621 147 585 b 175 467 147 506 161 481 b 435 300 247 394 356 379 b 489 172 467 268 489 228 b 282 -19 489 32 353 -19 b 126 10 215 -19 150 10 b 101 0 115 10 106 6 l 72 0 l 72 217 l 96 217 b 283 24 110 103 185 24 b 390 118 340 24 390 67 b 351 207 390 157 381 178 b 111 368 303 256 168 311 b 68 476 81 399 68 426 "},"t":{"ha":463,"x_min":0,"x_max":0,"o":"m 40 601 l 40 629 b 231 849 135 668 201 746 l 253 849 l 253 644 l 399 644 l 399 601 l 253 601 l 253 157 b 332 61 253 100 286 61 b 418 114 365 61 388 75 l 446 114 b 271 -19 396 22 342 -19 b 139 151 185 -19 139 49 l 139 601 "},"u":{"ha":767,"x_min":0,"x_max":0,"o":"m 142 524 b 25 619 142 597 115 624 l 25 644 l 256 644 l 256 188 b 283 104 256 153 263 129 b 361 69 301 83 328 69 b 526 154 415 69 475 100 l 526 536 b 418 619 526 592 497 624 l 418 644 l 640 644 l 640 153 b 701 74 640 115 658 74 b 747 85 715 74 725 76 l 747 58 l 553 -17 l 526 -17 l 526 119 l 524 119 b 307 -19 447 25 375 -19 b 142 165 204 -19 142 65 l 142 524 "},"v":{"ha":694,"x_min":0,"x_max":0,"o":"m 307 644 l 307 619 b 238 564 260 615 238 599 b 257 486 238 544 244 514 l 392 157 l 540 524 b 554 575 550 549 554 564 b 483 619 554 606 536 617 l 483 644 l 676 644 l 676 619 b 593 531 636 615 617 596 l 374 -18 l 346 -18 l 160 439 b 18 619 94 597 72 614 l 18 644 "},"w":{"ha":999,"x_min":0,"x_max":0,"o":"m 269 644 l 269 619 b 211 574 231 618 211 603 b 225 514 211 558 215 542 l 356 156 l 490 456 l 458 539 b 356 619 433 606 417 619 l 356 644 l 651 644 l 651 619 b 572 568 596 619 572 600 b 581 525 572 557 575 540 l 717 165 l 854 525 b 865 569 863 547 865 558 b 792 619 865 606 844 618 l 792 644 l 982 644 l 982 619 b 892 494 947 618 929 592 l 697 -17 l 669 -17 l 514 394 l 331 -17 l 304 -17 l 108 514 b 17 619 78 596 60 618 l 17 644 "},"x":{"ha":694,"x_min":0,"x_max":0,"o":"m 321 644 l 321 619 b 269 586 288 618 269 606 b 296 524 269 572 279 549 l 356 431 l 421 528 b 446 583 439 554 446 571 b 394 619 446 607 429 618 l 394 644 l 608 644 l 608 619 b 449 489 551 614 511 582 l 382 389 l 489 217 b 671 25 578 75 622 29 l 671 0 l 388 0 l 388 25 b 446 57 425 25 446 36 b 406 142 446 76 442 85 l 314 289 l 196 113 b 172 60 178 85 172 74 b 235 25 172 38 196 25 l 235 0 l 24 0 l 24 25 b 164 147 68 24 118 79 l 288 331 l 179 501 b 32 619 121 593 92 618 l 32 644 "},"y":{"ha":694,"x_min":0,"x_max":0,"o":"m 310 644 l 310 619 b 235 568 256 619 235 607 b 249 513 235 551 240 531 l 406 161 l 544 536 b 554 578 550 553 554 567 b 489 619 554 607 535 615 l 489 644 l 674 644 l 674 619 b 599 539 640 615 618 590 l 379 -51 b 143 -294 319 -218 242 -294 b 50 -218 88 -294 50 -262 b 122 -154 50 -181 79 -154 b 218 -181 163 -154 189 -181 b 331 -42 258 -181 293 -133 l 353 14 l 129 513 b 22 619 96 586 65 615 l 22 644 "},"z":{"ha":608,"x_min":0,"x_max":0,"o":"m 582 644 l 582 621 l 169 47 l 403 47 b 549 194 514 47 549 86 l 575 194 l 567 0 l 19 0 l 19 25 l 431 597 l 207 597 b 89 475 128 597 97 575 l 65 475 l 65 644 "},"{":{"ha":665,"x_min":0,"x_max":0,"o":"m 168 378 b 322 519 257 389 322 449 b 307 619 322 553 315 585 b 292 735 299 654 292 692 b 546 996 292 865 400 976 l 546 972 b 393 817 439 949 393 882 b 408 711 393 785 401 749 b 424 599 415 674 424 635 b 224 367 424 497 347 408 l 224 364 b 424 132 347 322 424 233 b 408 19 424 96 417 57 b 393 -86 400 -18 393 -54 b 546 -242 393 -151 439 -218 l 546 -265 b 292 -4 400 -246 292 -135 b 307 111 292 39 300 76 b 322 211 314 146 322 178 b 168 353 322 282 257 342 l 168 378 "},"|":{"ha":275,"x_min":0,"x_max":0,"o":"m 182 996 l 182 -294 l 92 -294 l 92 996 "},"}":{"ha":665,"x_min":0,"x_max":0,"o":"m 497 353 b 343 211 408 342 343 282 b 358 111 343 178 351 146 b 374 -4 365 76 374 39 b 119 -265 374 -135 265 -246 l 119 -242 b 272 -86 226 -218 272 -151 b 257 19 272 -54 265 -18 b 242 132 249 57 242 96 b 442 364 242 233 318 322 l 442 367 b 242 599 318 408 242 497 b 257 711 242 635 250 674 b 272 817 264 749 272 785 b 119 972 272 882 226 949 l 119 996 b 374 735 265 976 374 865 b 358 619 374 692 367 654 b 343 519 350 585 343 553 b 497 378 343 449 408 389 "},"~":{"ha":753,"x_min":0,"x_max":0,"o":"m 747 589 b 556 361 740 436 674 361 b 351 422 494 361 422 392 b 163 483 281 453 214 483 b 51 363 97 483 64 443 l 6 363 b 192 590 8 543 103 590 b 401 528 258 590 331 560 b 592 465 471 497 539 465 b 701 589 656 465 694 514 "},"¡":{"ha":376,"x_min":0,"x_max":0,"o":"m 172 389 l 197 389 l 254 -153 b 261 -236 256 -172 261 -224 b 183 -335 261 -293 225 -335 b 104 -236 136 -335 104 -294 b 111 -147 104 -217 107 -178 m 265 582 b 189 506 265 540 231 506 b 111 583 146 506 111 540 b 189 660 111 625 146 660 b 265 582 231 660 265 625 "},"¢":{"ha":608,"x_min":0,"x_max":0,"o":"m 429 649 b 572 508 511 626 572 567 b 506 454 572 476 544 454 b 447 476 486 454 458 465 b 407 589 425 499 439 563 l 243 135 b 368 93 285 106 322 93 b 567 250 465 93 536 150 l 589 240 b 319 -19 550 83 443 -19 b 197 10 274 -19 239 -11 l 99 -262 l 56 -262 l 161 32 b 33 314 76 96 33 190 b 357 660 33 519 163 658 b 388 657 371 660 375 660 l 486 932 l 531 932 m 371 611 b 332 618 361 615 347 618 b 144 376 217 618 144 525 b 210 165 144 290 160 243 "},"£":{"ha":694,"x_min":0,"x_max":0,"o":"m 186 529 b 176 682 182 572 176 661 b 439 969 176 793 242 969 b 611 829 538 969 611 910 b 560 771 611 797 588 771 b 507 850 526 771 511 796 b 425 932 503 907 478 932 b 294 747 338 932 294 871 b 303 529 294 682 301 593 l 485 529 l 485 465 l 303 465 b 263 160 311 351 294 231 b 506 103 372 117 435 103 b 642 217 582 103 631 143 l 667 217 b 467 -17 642 69 568 -17 b 233 96 404 -17 338 17 b 106 -17 196 21 153 -17 b 26 68 60 -17 26 18 b 147 181 26 136 75 181 b 197 174 164 181 188 176 b 200 258 197 190 200 242 b 186 465 200 297 188 408 l 49 465 l 49 529 m 186 121 b 126 139 161 135 146 139 b 64 76 93 139 64 111 b 108 25 64 49 85 25 b 186 121 142 25 171 60 "},"⁄":{"ha":463,"x_min":0,"x_max":0,"o":"m 593 974 l -71 -39 l -131 -39 l 533 974 "},"¥":{"ha":694,"x_min":0,"x_max":0,"o":"m 404 139 b 526 29 404 53 424 29 l 526 0 l 164 0 l 164 29 b 286 132 268 28 286 54 l 286 254 l 51 254 l 51 306 l 286 306 l 286 399 l 274 426 l 51 426 l 51 478 l 251 478 l 103 826 b -12 926 69 904 44 926 l -12 954 l 299 954 l 299 926 b 214 885 242 928 214 904 b 226 842 214 876 219 860 l 375 476 l 526 832 b 542 885 536 854 542 875 b 463 926 542 910 517 926 l 463 954 l 706 954 l 706 926 b 585 819 647 928 625 910 l 433 478 l 643 478 l 643 426 l 408 426 l 404 414 l 404 306 l 643 306 l 643 254 l 404 254 "},"ƒ":{"ha":694,"x_min":0,"x_max":0,"o":"m 607 607 l 596 560 l 471 560 b 199 -237 342 -33 278 -151 b 76 -294 165 -274 113 -294 b -12 -219 25 -294 -12 -262 b 43 -156 -12 -185 13 -156 b 90 -197 68 -156 90 -175 b 74 -237 90 -212 74 -231 b 96 -251 74 -246 90 -251 b 163 -192 115 -251 142 -232 b 353 560 217 -87 242 142 l 225 560 l 236 607 b 350 633 313 613 338 621 b 492 925 394 678 419 853 b 606 975 525 958 571 975 b 703 894 663 975 703 942 b 656 839 703 863 682 839 b 610 879 631 839 610 858 b 625 924 610 892 625 914 b 601 942 625 935 615 942 b 522 846 569 942 536 919 l 479 607 "},"§":{"ha":535,"x_min":0,"x_max":0,"o":"m 181 -107 b 171 -178 181 -122 171 -158 b 250 -242 171 -214 206 -242 b 378 -128 315 -242 378 -186 b 306 11 378 -81 364 -47 b 117 168 250 67 179 106 b 25 356 53 232 25 292 b 176 594 25 454 79 539 b 92 772 119 653 92 710 b 289 968 92 883 178 968 b 461 817 385 968 461 900 b 408 754 461 781 439 754 b 357 811 379 754 357 778 b 367 881 357 832 367 868 b 290 943 367 919 333 943 b 163 826 222 943 163 888 b 226 694 163 774 183 738 b 407 546 279 642 349 604 b 511 344 503 450 511 397 b 361 107 511 247 457 161 b 446 -71 418 51 446 -7 b 250 -268 446 -183 361 -268 b 78 -112 156 -268 78 -197 b 132 -53 78 -79 103 -53 b 181 -107 160 -53 181 -76 m 200 574 b 92 422 122 529 92 488 b 168 268 92 364 114 322 b 342 128 226 210 299 167 b 447 281 411 164 447 218 b 363 439 447 329 431 371 b 200 574 317 485 254 525 "},"¤":{"ha":694,"x_min":0,"x_max":0,"o":"m 103 460 b 347 215 103 325 213 215 b 592 460 482 215 592 325 b 347 704 592 594 482 704 b 103 460 213 704 103 594 m 57 131 l 18 169 l 118 269 b 47 460 74 319 47 388 b 118 650 47 532 72 597 l 18 750 l 57 789 l 157 689 b 347 760 207 733 274 760 b 538 689 419 760 486 733 l 638 789 l 676 750 l 576 650 b 647 460 621 599 647 532 b 576 269 647 388 621 321 l 676 169 l 638 131 l 538 231 b 347 160 486 186 419 160 b 157 231 274 160 207 186 "},"'":{"ha":246,"x_min":0,"x_max":0,"o":"m 71 779 b 56 892 64 817 56 854 b 121 975 56 946 78 975 b 192 903 161 975 192 944 b 178 801 192 881 183 831 l 136 579 l 107 579 "},"“":{"ha":694,"x_min":0,"x_max":0,"o":"m 607 969 b 456 790 497 932 456 854 b 476 763 456 775 464 763 b 533 783 489 763 504 783 b 607 710 574 783 607 750 b 518 626 607 663 568 626 b 406 767 453 626 406 686 b 607 996 406 874 471 947 m 289 969 b 138 790 179 932 138 854 b 158 763 138 775 146 763 b 215 783 171 763 186 783 b 289 710 256 783 289 750 b 200 626 289 663 250 626 b 88 767 135 626 88 686 b 289 996 88 874 153 947 "},"«":{"ha":694,"x_min":0,"x_max":0,"o":"m 346 672 l 179 351 l 346 25 l 307 25 l 43 351 l 307 672 m 651 672 l 485 351 l 651 25 l 613 25 l 349 351 l 613 672 "},"‹":{"ha":376,"x_min":0,"x_max":0,"o":"m 340 672 l 172 351 l 340 25 l 300 25 l 36 351 l 300 672 "},"›":{"ha":376,"x_min":0,"x_max":0,"o":"m 340 351 l 76 25 l 36 25 l 204 351 l 36 672 l 76 672 "},"–":{"ha":694,"x_min":0,"x_max":0,"o":"m 703 343 l 703 300 l -8 300 l -8 343 "},"†":{"ha":694,"x_min":0,"x_max":0,"o":"m 332 649 b 271 888 331 732 271 806 b 346 975 271 933 307 975 b 421 883 386 975 421 932 b 358 649 421 793 356 731 b 564 701 447 653 492 701 b 628 635 597 701 628 669 b 561 567 628 597 597 567 b 358 621 486 567 451 615 b 425 458 360 542 375 503 b 358 -294 381 310 354 28 l 332 -294 b 263 458 332 122 300 333 b 332 621 310 496 332 549 b 132 568 263 617 199 568 b 67 635 97 568 67 599 b 133 701 67 671 97 701 b 332 649 197 701 261 649 "},"‡":{"ha":694,"x_min":0,"x_max":0,"o":"m 335 717 b 279 931 336 804 279 857 b 347 1001 279 968 311 1001 b 415 928 385 1001 415 968 b 360 717 415 850 363 807 b 542 764 417 714 485 764 b 601 703 575 764 601 736 b 544 643 601 668 576 643 b 360 692 476 643 428 696 b 425 571 364 639 383 601 b 361 344 382 518 361 446 b 425 132 361 253 381 186 b 360 14 385 101 367 71 b 542 61 433 14 478 61 b 601 -1 574 61 601 32 b 542 -61 601 -33 574 -61 b 360 -12 483 -61 426 -11 b 417 -226 358 -85 417 -161 b 349 -294 417 -262 383 -294 b 278 -221 311 -294 278 -260 b 335 -12 278 -143 336 -89 b 154 -61 263 -10 213 -61 b 93 0 122 -61 93 -32 b 160 61 93 35 121 61 b 335 14 213 61 264 13 b 269 132 328 72 311 101 b 335 358 318 199 335 258 b 269 571 335 461 315 522 b 335 692 314 606 331 638 b 158 643 264 690 208 643 b 93 704 121 643 93 669 b 154 764 93 739 119 764 b 335 717 225 764 258 715 "},"·":{"ha":376,"x_min":0,"x_max":0,"o":"m 189 554 b 265 478 232 554 265 521 b 189 400 265 435 232 400 b 111 478 146 400 111 435 b 189 554 111 521 146 554 "},"¶":{"ha":622,"x_min":0,"x_max":0,"o":"m 653 928 l 624 928 b 543 785 543 928 543 892 l 543 -294 l 493 -294 l 493 915 l 361 915 l 361 -294 l 310 -294 l 310 422 b 51 496 192 428 107 446 b -28 690 -8 550 -28 631 b 289 954 -28 838 75 954 l 653 954 "},"•":{"ha":492,"x_min":0,"x_max":0,"o":"m 246 660 b 418 488 340 660 418 582 b 246 315 418 393 340 315 b 74 488 151 315 74 393 b 246 660 74 582 151 660 "},"‚":{"ha":463,"x_min":0,"x_max":0,"o":"m 131 -206 b 282 -26 240 -168 282 -90 b 261 1 282 -11 274 1 b 239 -8 256 1 249 -4 b 204 -19 231 -14 219 -19 b 131 54 164 -19 131 14 b 219 138 131 101 169 138 b 332 -3 285 138 332 78 b 131 -232 332 -110 267 -183 "},"„":{"ha":694,"x_min":0,"x_max":0,"o":"m 401 -206 b 553 -26 511 -168 553 -90 b 532 1 553 -11 544 1 b 510 -8 526 1 519 -4 b 475 -19 501 -14 490 -19 b 401 54 435 -19 401 14 b 490 138 401 101 440 138 b 603 -3 556 138 603 78 b 401 -232 603 -110 538 -183 m 83 -206 b 235 -26 193 -168 235 -90 b 214 1 235 -11 226 1 b 192 -8 208 1 201 -4 b 157 -19 183 -14 172 -19 b 83 54 117 -19 83 14 b 172 138 83 101 122 138 b 285 -3 238 138 285 78 b 83 -232 285 -110 219 -183 "},"”":{"ha":694,"x_min":0,"x_max":0,"o":"m 406 653 b 485 694 443 668 464 679 b 557 832 531 728 557 782 b 536 860 557 847 549 860 l 526 857 l 510 847 b 479 839 500 842 490 839 b 406 913 440 839 406 872 b 494 996 406 960 446 996 b 607 856 560 996 607 936 b 406 626 607 749 542 675 m 88 653 b 167 694 125 668 146 679 b 239 832 213 728 239 782 b 218 860 239 847 231 860 l 208 857 l 192 847 b 161 839 182 842 172 839 b 88 913 121 839 88 872 b 176 996 88 960 126 996 b 289 856 242 996 289 936 b 88 626 289 749 224 675 "},"»":{"ha":694,"x_min":0,"x_max":0,"o":"m 651 351 l 386 25 l 347 25 l 515 351 l 347 672 l 386 672 m 347 351 l 83 25 l 43 25 l 211 351 l 43 672 l 83 672 "},"…":{"ha":1389,"x_min":0,"x_max":0,"o":"m 154 58 b 232 135 154 101 189 135 b 308 58 275 135 308 101 b 232 -19 308 15 275 -19 b 154 58 189 -19 154 15 m 617 58 b 694 135 617 101 651 135 b 771 58 738 135 771 101 b 694 -19 771 15 738 -19 b 617 58 651 -19 617 15 m 1079 58 b 1157 135 1079 101 1114 135 b 1233 58 1200 135 1233 101 b 1157 -19 1233 15 1200 -19 b 1079 58 1114 -19 1079 15 "},"‰":{"ha":1389,"x_min":0,"x_max":0,"o":"m 1013 238 b 1194 485 1013 419 1125 485 b 1375 238 1275 485 1375 408 b 1194 -8 1375 56 1267 -8 b 1013 238 1119 -8 1013 61 m 1093 238 b 1194 14 1093 88 1126 14 b 1294 238 1261 14 1294 88 b 1194 463 1294 389 1261 463 b 1093 238 1126 463 1093 389 m 547 238 b 729 485 547 419 660 485 b 910 238 810 485 910 408 b 729 -8 910 56 801 -8 b 547 238 654 -8 547 61 m 628 238 b 729 14 628 88 661 14 b 829 238 796 14 829 88 b 729 463 829 389 796 463 b 628 238 661 463 628 389 m 11 722 b 193 969 11 904 124 969 b 374 722 274 969 374 893 b 193 476 374 540 265 476 b 11 722 118 476 11 546 m 92 722 b 193 499 92 572 125 499 b 293 722 260 499 293 572 b 193 947 293 874 260 947 b 92 722 125 947 92 874 m 815 974 l 151 -39 l 92 -39 l 756 974 "},"¿":{"ha":535,"x_min":0,"x_max":0,"o":"m 28 -117 b 151 149 28 -28 57 36 b 257 414 247 264 257 311 l 282 414 b 153 -93 304 188 153 93 b 303 -293 153 -211 215 -293 b 415 -200 360 -293 415 -247 b 371 -83 415 -171 371 -119 b 422 -26 371 -54 397 -26 b 503 -129 465 -26 503 -75 b 264 -335 503 -243 396 -335 b 28 -117 133 -335 28 -239 m 344 582 b 267 506 344 539 310 506 b 190 582 224 506 190 539 b 267 660 190 625 224 660 b 344 582 310 660 344 625 "},"`":{"ha":463,"x_min":0,"x_max":0,"o":"m 232 975 l 303 740 l 281 740 l 81 975 "},"´":{"ha":463,"x_min":0,"x_max":0,"o":"m 182 740 l 160 740 l 231 975 l 382 975 "},"ˆ":{"ha":463,"x_min":0,"x_max":0,"o":"m 293 975 l 422 751 l 401 751 l 217 896 l 61 751 l 40 751 l 168 975 "},"˜":{"ha":463,"x_min":0,"x_max":0,"o":"m 15 778 b 142 954 15 889 67 954 b 363 860 238 954 301 860 b 428 954 403 860 421 899 l 449 954 b 319 775 453 843 390 775 b 196 824 272 775 232 799 b 99 871 160 847 129 871 b 36 778 61 871 46 840 "},"¯":{"ha":463,"x_min":0,"x_max":0,"o":"m 447 915 l 447 814 l 15 814 l 15 915 "},"˘":{"ha":463,"x_min":0,"x_max":0,"o":"m 58 954 b 233 867 92 893 143 867 b 403 954 324 867 383 897 l 425 954 b 232 764 417 843 338 764 b 38 954 117 764 42 858 "},"˙":{"ha":463,"x_min":0,"x_max":0,"o":"m 232 940 b 306 867 272 940 306 907 b 232 793 306 826 272 793 b 158 867 192 793 158 826 b 232 940 158 907 192 940 "},"¨":{"ha":463,"x_min":0,"x_max":0,"o":"m 113 940 b 186 867 153 940 186 907 b 113 793 186 826 153 793 b 39 867 72 793 39 826 b 113 940 39 907 72 940 m 350 940 b 424 867 390 940 424 907 b 350 793 424 826 390 793 b 276 867 310 793 276 826 b 350 940 276 907 310 940 "},"˚":{"ha":463,"x_min":0,"x_max":0,"o":"m 232 975 b 361 846 303 975 361 917 b 232 717 361 775 303 717 b 103 846 161 717 103 775 b 232 975 103 917 161 975 m 232 926 b 151 846 188 926 151 890 b 232 765 151 801 188 765 b 313 846 276 765 313 801 b 232 926 313 890 276 926 "},"¸":{"ha":463,"x_min":0,"x_max":0,"o":"m 250 -25 b 344 -124 307 -29 344 -68 b 185 -244 344 -194 282 -244 b 118 -242 161 -244 139 -242 l 125 -218 b 238 -153 190 -222 238 -193 b 158 -99 238 -118 204 -92 l 225 0 l 267 0 "},"˝":{"ha":463,"x_min":0,"x_max":0,"o":"m 310 996 l 265 758 l 288 758 l 438 996 m 97 996 l 53 758 l 75 758 l 225 996 "},"˛":{"ha":463,"x_min":0,"x_max":0,"o":"m 190 11 b 172 -57 176 -17 172 -33 b 317 -189 172 -147 250 -189 b 399 -174 344 -189 369 -183 l 413 -194 b 256 -246 335 -237 308 -246 b 100 -122 164 -246 100 -194 b 156 11 100 -71 121 -22 "},"ˇ":{"ha":463,"x_min":0,"x_max":0,"o":"m 169 751 l 40 975 l 61 975 l 246 831 l 401 975 l 422 975 l 294 751 "},"—":{"ha":1389,"x_min":0,"x_max":0,"o":"m 1397 343 l 1397 300 l -8 300 l -8 343 "},"Æ":{"ha":1389,"x_min":0,"x_max":0,"o":"m 1263 954 l 1275 740 l 1249 740 b 1054 899 1225 868 1157 899 l 790 899 l 790 531 l 1050 531 b 1172 667 1139 531 1174 582 l 1197 667 l 1197 332 l 1172 332 b 1047 475 1171 431 1133 475 l 790 475 l 790 124 b 865 56 790 68 807 56 l 1099 56 b 1336 249 1215 56 1292 122 l 1360 242 l 1296 0 l 511 0 l 511 25 b 640 146 622 26 640 69 l 640 372 l 374 372 l 272 183 b 243 93 253 146 243 117 b 350 25 243 46 281 25 l 350 0 l 22 0 l 22 25 b 190 160 96 35 147 79 l 526 783 b 557 864 553 833 557 854 b 440 929 557 906 524 931 l 440 954 m 403 428 l 640 428 l 640 865 l 638 865 "},"ª":{"ha":435,"x_min":0,"x_max":0,"o":"m 429 625 b 321 560 394 583 356 560 b 258 618 281 560 256 588 b 119 560 218 582 168 560 b 25 658 68 560 25 604 b 258 825 25 732 94 767 b 194 943 258 915 251 943 b 129 894 157 943 129 926 b 131 874 129 890 131 876 b 88 831 131 847 118 831 b 42 869 60 831 42 847 b 204 969 42 926 111 969 b 346 863 303 969 346 936 l 346 651 b 365 617 346 628 351 617 b 429 665 383 617 404 635 m 258 793 b 114 679 140 746 114 724 b 175 615 114 642 140 615 b 258 650 200 615 221 624 "},"Ł":{"ha":926,"x_min":0,"x_max":0,"o":"m 819 0 l 58 0 l 58 25 b 201 146 178 22 201 64 l 201 382 l 58 263 l 58 329 l 201 449 l 201 810 b 58 929 201 886 178 932 l 58 954 l 486 954 l 486 929 b 351 808 381 931 351 899 l 351 574 l 526 719 l 526 651 l 351 507 l 351 118 b 407 63 351 76 365 63 l 601 63 b 876 263 735 63 807 93 l 900 254 "},"Ø":{"ha":1071,"x_min":0,"x_max":0,"o":"m 782 769 b 538 922 735 864 644 922 b 228 476 349 922 228 747 b 267 239 228 386 246 290 m 54 476 b 538 975 54 753 269 975 b 858 849 654 975 765 933 l 1000 994 l 1038 954 l 897 810 b 1022 476 978 718 1022 603 b 538 -21 1022 201 806 -21 b 213 108 401 -21 297 32 l 71 -37 l 35 0 l 176 146 b 54 476 97 235 54 363 m 290 188 b 538 32 356 75 440 32 b 849 476 726 32 849 207 b 807 718 849 551 833 663 "},"Œ":{"ha":1389,"x_min":0,"x_max":0,"o":"m 1283 739 l 1257 739 b 1054 899 1239 863 1163 899 l 832 899 l 832 531 l 1040 531 b 1186 667 1136 531 1183 558 l 1211 667 l 1211 333 l 1186 333 b 1069 475 1188 432 1144 475 l 832 475 l 832 138 b 913 56 832 67 843 56 l 1049 56 b 1340 247 1199 56 1281 99 l 1364 239 l 1294 0 l 700 0 b 593 -3 676 0 635 -1 b 490 -7 551 -6 511 -7 b 61 475 214 -7 61 229 b 522 961 61 811 311 961 b 635 958 553 961 592 960 b 769 954 678 956 725 954 l 1275 954 m 682 747 b 528 908 682 844 635 908 b 235 461 353 908 235 760 b 522 46 235 231 331 46 b 682 214 629 46 682 103 "},"º":{"ha":478,"x_min":0,"x_max":0,"o":"m 450 778 b 232 560 450 661 350 560 b 29 756 121 560 29 647 b 246 969 29 871 129 969 b 450 778 357 969 450 882 m 356 744 b 228 932 356 850 300 932 b 125 788 165 932 125 876 b 253 597 125 681 181 597 b 356 744 314 597 356 656 "},"æ":{"ha":926,"x_min":0,"x_max":0,"o":"m 193 529 b 194 493 193 528 194 500 b 143 435 194 456 178 435 b 83 497 108 435 83 460 b 315 660 83 589 185 660 b 478 604 382 660 424 646 b 639 660 524 642 578 660 b 875 394 792 660 872 557 l 501 394 b 682 89 503 229 524 89 b 875 232 775 89 835 143 l 896 218 b 628 -19 840 67 744 -19 b 432 100 547 -19 479 22 b 207 -19 351 18 281 -19 b 54 142 122 -19 54 53 b 206 326 54 219 101 282 l 385 403 b 389 504 386 425 389 465 b 293 631 389 554 369 631 b 193 529 233 631 193 589 m 736 438 b 624 617 736 551 703 617 b 503 438 546 617 504 553 m 385 368 b 172 176 211 289 172 243 b 290 54 172 110 226 54 b 419 122 329 54 363 71 b 385 368 389 200 382 282 "},"ı":{"ha":376,"x_min":0,"x_max":0,"o":"m 136 479 b 69 568 136 532 115 568 b 54 567 64 568 58 568 b 40 561 50 567 46 564 l 32 586 l 225 660 l 250 660 l 250 154 b 344 25 250 57 271 28 l 344 0 l 32 0 l 32 25 l 33 25 b 136 154 111 25 136 56 l 136 479 "},"ł":{"ha":376,"x_min":0,"x_max":0,"o":"m 138 753 l 138 797 b 74 896 138 865 117 896 b 40 889 63 896 54 894 l 32 913 l 226 996 l 251 996 l 251 582 l 367 681 l 367 613 l 251 514 l 251 153 b 342 25 251 54 271 28 l 344 25 l 344 0 l 32 0 l 32 25 l 43 25 b 138 153 115 25 138 56 l 138 417 l 29 325 l 29 393 l 138 485 "},"ø":{"ha":767,"x_min":0,"x_max":0,"o":"m 242 140 b 406 29 276 76 335 29 b 582 285 511 29 582 131 b 549 467 582 338 572 404 m 707 343 b 374 -19 707 147 553 -19 b 168 63 294 -19 222 13 l 72 -40 l 42 -12 l 140 93 b 64 304 92 147 64 231 b 397 660 64 496 218 660 b 599 581 471 660 542 631 l 694 683 l 725 654 l 628 550 b 707 343 676 500 707 417 m 528 506 b 364 611 485 576 426 611 b 189 360 257 611 189 514 b 222 181 189 321 196 239 "},"œ":{"ha":999,"x_min":0,"x_max":0,"o":"m 976 211 b 729 -19 913 60 828 -19 b 543 100 656 -19 590 22 b 331 -19 482 18 414 -19 b 47 301 231 -19 47 60 b 344 660 47 504 176 660 b 543 556 432 660 489 631 b 721 660 597 632 644 660 b 958 394 861 660 954 556 l 597 394 b 788 97 597 196 658 97 b 958 226 860 97 910 135 m 818 438 l 818 443 l 818 444 b 704 611 818 549 775 611 b 597 438 631 611 597 549 m 172 363 b 343 29 172 153 235 29 b 489 281 429 29 489 110 b 313 617 489 503 429 617 b 172 363 225 617 172 519 "},"ß":{"ha":767,"x_min":0,"x_max":0,"o":"m 383 586 b 542 769 492 585 542 649 b 396 954 542 886 488 954 b 251 776 285 954 251 867 l 251 131 b 339 25 251 61 275 32 l 339 0 l 35 0 l 35 25 b 138 151 119 28 138 60 l 138 754 b 396 996 138 889 229 996 b 660 769 551 996 660 903 b 515 578 660 679 606 607 l 515 575 b 719 304 646 543 719 446 b 476 -8 719 135 608 -8 b 343 103 401 -8 343 40 b 399 168 343 142 365 168 b 456 108 433 168 456 138 b 447 64 456 96 447 75 b 483 33 447 49 461 33 b 601 244 554 33 601 118 b 383 546 601 424 515 543 l 383 586 "},"¬":{"ha":926,"x_min":0,"x_max":0,"o":"m 831 678 l 831 272 l 746 272 l 746 593 l 96 593 l 96 678 "},"µ":{"ha":724,"x_min":0,"x_max":0,"o":"m 200 644 l 200 222 b 240 89 200 151 213 113 b 300 67 257 75 279 67 b 471 161 357 67 414 97 l 471 644 l 585 644 l 585 142 b 628 57 585 97 592 57 b 685 143 657 57 676 86 l 714 143 b 689 44 710 94 704 72 b 575 -19 667 4 624 -19 b 471 114 508 -19 479 21 b 244 -19 389 18 322 -19 b 139 40 196 -19 168 -4 l 136 40 l 136 7 b 158 -144 136 -36 139 -58 b 168 -218 165 -174 168 -199 b 104 -294 168 -264 144 -294 b 43 -219 68 -294 43 -264 b 53 -147 43 -197 46 -174 b 74 -60 60 -118 67 -89 b 81 -19 76 -53 78 -56 b 86 67 85 28 86 51 l 86 644 "},"™":{"ha":1360,"x_min":0,"x_max":0,"o":"m 528 954 l 543 818 l 519 818 b 389 913 508 889 475 913 l 339 913 l 339 519 b 410 431 339 446 347 435 l 410 407 l 156 407 l 156 431 b 225 519 217 438 225 446 l 225 913 l 171 913 b 43 818 88 913 57 890 l 19 818 l 33 954 m 969 565 l 1150 954 l 1338 954 l 1338 929 b 1264 836 1272 928 1264 915 l 1264 519 b 1338 431 1264 443 1271 435 l 1338 407 l 1067 407 l 1067 431 b 1150 519 1138 432 1150 444 l 1150 853 l 1147 853 l 940 407 l 918 407 l 711 847 l 708 847 l 708 519 b 799 431 708 436 719 431 l 799 407 l 589 407 l 589 431 b 667 519 656 431 667 443 l 667 836 b 589 929 667 918 657 929 l 589 954 l 785 954 "},"Ð":{"ha":1143,"x_min":0,"x_max":0,"o":"m 44 954 l 572 954 b 1086 478 933 954 1086 692 b 529 0 1086 200 854 0 l 44 0 l 44 25 b 185 146 161 25 185 65 l 185 449 l 72 449 l 72 501 l 185 501 l 185 813 b 44 929 185 900 147 929 m 335 501 l 639 501 l 639 449 l 335 449 l 335 69 b 485 49 382 56 428 49 b 913 469 743 49 913 215 b 490 901 913 725 739 901 b 335 878 436 901 382 893 "},"½":{"ha":1143,"x_min":0,"x_max":0,"o":"m 736 363 b 901 504 761 461 811 504 b 1068 374 993 504 1068 446 b 822 64 1068 294 1015 219 l 822 61 l 989 61 b 1074 100 1040 61 1060 72 l 1106 100 l 1061 0 l 721 0 l 721 18 b 983 339 931 185 983 260 b 874 439 983 396 936 439 b 768 363 826 439 792 415 m 933 974 l 269 -39 l 210 -39 l 874 974 m 253 969 l 279 969 l 279 540 b 349 486 279 492 292 486 l 349 465 l 122 465 l 122 486 b 193 540 175 486 193 489 l 193 836 b 171 903 193 890 189 903 b 126 889 158 903 150 900 l 114 908 "},"±":{"ha":926,"x_min":0,"x_max":0,"o":"m 421 633 l 421 958 l 506 958 l 506 633 l 831 633 l 831 549 l 506 549 l 506 224 l 421 224 l 421 549 l 96 549 l 96 633 m 831 85 l 831 0 l 96 0 l 96 85 "},"Þ":{"ha":839,"x_min":0,"x_max":0,"o":"m 321 742 l 465 742 b 814 475 643 742 814 639 b 506 211 814 324 682 211 b 321 243 449 211 393 221 l 321 144 b 464 25 321 49 360 25 l 464 0 l 35 0 l 35 25 b 171 146 157 24 171 76 l 171 810 b 35 929 171 900 136 929 l 35 954 l 457 954 l 457 929 b 321 808 335 931 321 878 m 321 292 b 439 264 365 274 403 264 b 640 469 560 264 640 347 b 422 689 640 597 550 689 b 321 671 390 689 358 683 "},"¼":{"ha":1143,"x_min":0,"x_max":0,"o":"m 1003 504 l 1003 186 l 1078 186 l 1078 124 l 1003 124 l 1003 0 l 917 0 l 917 124 l 689 124 l 689 186 l 946 504 m 742 186 l 917 186 l 917 399 l 914 399 m 933 974 l 269 -39 l 210 -39 l 874 974 m 253 969 l 279 969 l 279 540 b 349 486 279 492 292 486 l 349 465 l 122 465 l 122 486 b 193 540 175 486 193 489 l 193 836 b 171 903 193 890 189 903 b 126 889 158 903 150 900 l 114 908 "},"÷":{"ha":928,"x_min":0,"x_max":0,"o":"m 464 807 b 521 750 496 807 521 782 b 464 693 521 718 496 693 b 407 750 432 693 407 718 b 464 807 407 782 432 807 m 831 515 l 831 431 l 97 431 l 97 515 m 464 253 b 521 196 496 253 521 228 b 464 139 521 164 496 139 b 407 196 432 139 407 164 b 464 253 407 228 432 253 "},"¦":{"ha":275,"x_min":0,"x_max":0,"o":"m 182 206 l 182 -294 l 92 -294 l 92 206 m 182 996 l 182 496 l 92 496 l 92 996 "},"°":{"ha":550,"x_min":0,"x_max":0,"o":"m 275 969 b 483 761 390 969 483 876 b 275 553 483 646 390 553 b 67 761 160 553 67 646 b 275 969 67 876 160 969 m 275 893 b 143 761 203 893 143 833 b 275 629 143 689 203 629 b 407 761 347 629 407 689 b 275 893 407 833 347 893 "},"þ":{"ha":767,"x_min":0,"x_max":0,"o":"m 253 513 l 256 513 b 472 660 306 599 385 660 b 725 340 613 660 725 518 b 404 -19 725 140 582 -19 b 253 40 344 -19 293 1 l 253 -137 b 369 -269 253 -244 275 -269 l 369 -294 l 24 -294 l 24 -269 b 139 -137 124 -271 139 -235 l 139 818 b 78 903 139 868 119 903 b 35 894 65 903 57 901 l 24 919 l 229 996 l 253 996 m 253 181 b 410 24 253 81 325 24 b 607 292 529 24 607 129 b 415 561 607 450 528 561 b 253 469 356 561 303 531 "},"¾":{"ha":1143,"x_min":0,"x_max":0,"o":"m 1003 504 l 1003 186 l 1078 186 l 1078 124 l 1003 124 l 1003 0 l 917 0 l 917 124 l 689 124 l 689 186 l 946 504 m 742 186 l 917 186 l 917 399 l 914 399 m 933 974 l 269 -39 l 210 -39 l 874 974 m 75 860 b 231 969 110 942 165 969 b 365 864 307 969 365 924 b 296 758 365 828 343 794 b 393 626 358 736 393 688 b 161 457 393 529 294 457 b 67 499 103 457 67 474 b 106 529 67 514 86 529 b 228 494 143 529 188 494 b 318 589 279 494 318 535 b 157 706 318 658 261 710 l 157 726 b 285 833 240 739 285 776 b 197 910 285 878 249 910 b 101 849 153 910 126 892 "},"®":{"ha":1056,"x_min":0,"x_max":0,"o":"m 540 783 b 747 626 664 783 747 721 b 592 472 747 549 697 499 l 738 264 b 822 203 769 218 789 206 l 822 179 l 694 179 l 489 463 l 436 463 l 436 257 b 518 203 436 215 461 203 l 518 179 l 263 179 l 263 203 b 335 268 318 203 335 221 l 335 696 b 269 758 335 740 321 758 l 269 783 m 457 492 b 635 619 569 492 635 539 b 494 753 635 696 575 753 b 436 742 474 753 461 750 l 436 492 m 528 975 b 1022 481 801 975 1022 754 b 528 -14 1022 207 801 -14 b 33 481 254 -14 33 207 b 528 975 33 754 254 975 m 526 932 b 75 481 278 932 75 729 b 526 29 75 232 278 29 b 978 481 775 29 978 232 b 526 932 978 729 775 932 "},"−":{"ha":926,"x_min":0,"x_max":0,"o":"m 831 518 l 831 433 l 96 433 l 96 518 "},"ð":{"ha":724,"x_min":0,"x_max":0,"o":"m 164 713 l 133 763 l 297 856 b 169 965 249 904 228 926 l 188 996 b 356 890 254 961 300 933 l 532 990 l 561 942 l 404 850 b 597 606 488 779 553 694 b 667 332 642 517 667 422 b 353 -19 667 128 535 -19 b 50 308 182 -19 50 122 b 344 654 50 469 163 654 b 460 613 392 654 417 644 l 463 615 b 336 811 440 668 386 753 m 338 611 b 179 363 228 611 179 504 b 238 124 179 265 200 182 b 386 29 274 64 326 29 b 538 264 482 29 538 115 b 496 492 538 335 526 422 b 338 611 465 560 415 611 "},"×":{"ha":928,"x_min":0,"x_max":0,"o":"m 181 810 l 464 525 l 747 810 l 799 757 l 515 474 l 796 193 l 744 142 l 464 422 l 182 142 l 131 193 l 413 474 l 129 757 "},"©":{"ha":1056,"x_min":0,"x_max":0,"o":"m 786 601 l 758 601 b 549 767 725 711 654 767 b 325 496 411 767 325 661 b 556 207 325 285 431 207 b 772 319 647 207 717 243 l 799 307 b 531 165 732 211 646 165 b 207 475 347 165 207 300 b 556 797 207 658 357 797 b 710 767 629 797 689 767 b 744 797 726 767 735 774 l 772 797 m 528 975 b 1022 481 801 975 1022 754 b 528 -14 1022 207 801 -14 b 33 481 254 -14 33 207 b 528 975 33 754 254 975 m 526 932 b 75 481 278 932 75 729 b 526 29 75 232 278 29 b 978 481 775 29 978 232 b 526 932 978 729 775 932 "},"Á":{"ha":1071,"x_min":0,"x_max":0,"o":"m 486 1038 l 464 1038 l 535 1272 l 686 1272 m 918 126 b 1051 25 957 38 986 25 l 1051 0 l 660 0 l 660 25 l 661 25 b 760 92 724 25 760 49 b 742 157 760 108 756 126 l 669 321 l 285 321 l 200 126 b 192 89 194 114 192 100 b 294 25 192 47 228 25 l 294 0 l 19 0 l 19 25 b 149 160 79 33 104 60 l 515 996 l 540 996 m 308 374 l 647 374 l 478 761 "},"Â":{"ha":1071,"x_min":0,"x_max":0,"o":"m 597 1272 l 726 1049 l 706 1049 l 521 1193 l 365 1049 l 344 1049 l 472 1272 m 918 126 b 1051 25 957 38 986 25 l 1051 0 l 660 0 l 660 25 l 661 25 b 760 92 724 25 760 49 b 742 157 760 108 756 126 l 669 321 l 285 321 l 200 126 b 192 89 194 114 192 100 b 294 25 192 47 228 25 l 294 0 l 19 0 l 19 25 b 149 160 79 33 104 60 l 515 996 l 540 996 m 308 374 l 647 374 l 478 761 "},"Ä":{"ha":1071,"x_min":0,"x_max":0,"o":"m 918 126 b 1051 25 957 38 986 25 l 1051 0 l 660 0 l 660 25 l 661 25 b 760 92 724 25 760 49 b 742 157 760 108 756 126 l 669 321 l 285 321 l 200 126 b 192 89 194 114 192 100 b 294 25 192 47 228 25 l 294 0 l 19 0 l 19 25 b 149 160 79 33 104 60 l 515 996 l 540 996 m 308 374 l 647 374 l 478 761 m 417 1238 b 490 1164 457 1238 490 1204 b 417 1090 490 1124 457 1090 b 343 1164 376 1090 343 1124 b 417 1238 343 1204 376 1238 m 654 1238 b 728 1164 694 1238 728 1204 b 654 1090 728 1124 694 1090 b 581 1164 614 1090 581 1124 b 654 1238 581 1204 614 1238 "},"À":{"ha":1071,"x_min":0,"x_max":0,"o":"m 536 1272 l 607 1038 l 585 1038 l 385 1272 m 918 126 b 1051 25 957 38 986 25 l 1051 0 l 660 0 l 660 25 l 661 25 b 760 92 724 25 760 49 b 742 157 760 108 756 126 l 669 321 l 285 321 l 200 126 b 192 89 194 114 192 100 b 294 25 192 47 228 25 l 294 0 l 19 0 l 19 25 b 149 160 79 33 104 60 l 515 996 l 540 996 m 308 374 l 647 374 l 478 761 "},"Å":{"ha":1071,"x_min":0,"x_max":0,"o":"m 536 1272 b 665 1143 607 1272 665 1214 b 536 1014 665 1072 607 1014 b 407 1143 465 1014 407 1072 b 536 1272 407 1214 465 1272 m 536 1224 b 456 1143 492 1224 456 1188 b 536 1063 456 1099 492 1063 b 617 1143 581 1063 617 1099 b 536 1224 617 1188 581 1224 m 918 126 b 1051 25 957 38 986 25 l 1051 0 l 660 0 l 660 25 l 661 25 b 760 92 724 25 760 49 b 742 157 760 108 756 126 l 669 321 l 285 321 l 200 126 b 192 89 194 114 192 100 b 294 25 192 47 228 25 l 294 0 l 19 0 l 19 25 b 149 160 79 33 104 60 l 515 996 l 540 996 m 308 374 l 647 374 l 478 761 "},"Ã":{"ha":1071,"x_min":0,"x_max":0,"o":"m 319 1075 b 446 1251 319 1186 371 1251 b 667 1157 542 1251 606 1157 b 732 1251 707 1157 725 1196 l 753 1251 b 624 1072 757 1140 694 1072 b 500 1121 576 1072 536 1096 b 403 1168 464 1144 433 1168 b 340 1075 365 1168 350 1138 m 918 126 b 1051 25 957 38 986 25 l 1051 0 l 660 0 l 660 25 l 661 25 b 760 92 724 25 760 49 b 742 157 760 108 756 126 l 669 321 l 285 321 l 200 126 b 192 89 194 114 192 100 b 294 25 192 47 228 25 l 294 0 l 19 0 l 19 25 b 149 160 79 33 104 60 l 515 996 l 540 996 m 308 374 l 647 374 l 478 761 "},"Ç":{"ha":999,"x_min":0,"x_max":0,"o":"m 947 653 l 924 653 b 590 922 897 829 746 922 b 232 454 392 922 232 790 b 611 39 232 161 426 39 b 947 228 774 39 894 139 l 968 214 b 563 -21 876 58 739 -21 b 522 -19 549 -21 536 -21 l 518 -25 b 613 -124 575 -29 613 -68 b 453 -244 613 -194 550 -244 b 386 -242 429 -244 407 -242 l 393 -218 b 506 -153 458 -222 506 -193 b 426 -99 506 -118 472 -92 l 483 -15 b 58 464 240 21 58 218 b 579 975 58 749 289 975 b 847 913 733 975 814 913 b 900 975 868 913 892 936 l 924 975 "},"É":{"ha":926,"x_min":0,"x_max":0,"o":"m 414 1038 l 392 1038 l 463 1272 l 614 1272 m 818 743 l 794 743 b 635 899 774 857 722 899 l 338 899 l 338 531 l 583 531 b 708 669 675 531 708 578 l 733 669 l 733 333 l 708 333 b 578 475 708 433 675 475 l 338 475 l 338 131 b 396 56 338 78 354 56 l 635 56 b 867 238 728 56 810 103 l 896 238 l 818 0 l 50 0 l 50 25 b 188 146 163 24 188 64 l 188 822 b 50 929 188 897 147 931 l 50 954 l 807 954 "},"Ê":{"ha":926,"x_min":0,"x_max":0,"o":"m 525 1272 l 654 1049 l 633 1049 l 449 1193 l 293 1049 l 272 1049 l 400 1272 m 818 743 l 794 743 b 635 899 774 857 722 899 l 338 899 l 338 531 l 583 531 b 708 669 675 531 708 578 l 733 669 l 733 333 l 708 333 b 578 475 708 433 675 475 l 338 475 l 338 131 b 396 56 338 78 354 56 l 635 56 b 867 238 728 56 810 103 l 896 238 l 818 0 l 50 0 l 50 25 b 188 146 163 24 188 64 l 188 822 b 50 929 188 897 147 931 l 50 954 l 807 954 "},"Ë":{"ha":926,"x_min":0,"x_max":0,"o":"m 344 1238 b 418 1164 385 1238 418 1204 b 344 1090 418 1124 385 1090 b 271 1164 304 1090 271 1124 b 344 1238 271 1204 304 1238 m 582 1238 b 656 1164 622 1238 656 1204 b 582 1090 656 1124 622 1090 b 508 1164 542 1090 508 1124 b 582 1238 508 1204 542 1238 m 818 743 l 794 743 b 635 899 774 857 722 899 l 338 899 l 338 531 l 583 531 b 708 669 675 531 708 578 l 733 669 l 733 333 l 708 333 b 578 475 708 433 675 475 l 338 475 l 338 131 b 396 56 338 78 354 56 l 635 56 b 867 238 728 56 810 103 l 896 238 l 818 0 l 50 0 l 50 25 b 188 146 163 24 188 64 l 188 822 b 50 929 188 897 147 931 l 50 954 l 807 954 "},"È":{"ha":926,"x_min":0,"x_max":0,"o":"m 499 1272 l 569 1038 l 547 1038 l 347 1272 m 818 743 l 794 743 b 635 899 774 857 722 899 l 338 899 l 338 531 l 583 531 b 708 669 675 531 708 578 l 733 669 l 733 333 l 708 333 b 578 475 708 433 675 475 l 338 475 l 338 131 b 396 56 338 78 354 56 l 635 56 b 867 238 728 56 810 103 l 896 238 l 818 0 l 50 0 l 50 25 b 188 146 163 24 188 64 l 188 822 b 50 929 188 897 147 931 l 50 954 l 807 954 "},"Í":{"ha":535,"x_min":0,"x_max":0,"o":"m 218 1038 l 196 1038 l 267 1272 l 418 1272 m 49 954 l 488 954 l 488 929 b 343 808 386 931 343 910 l 343 144 b 488 25 343 51 376 25 l 488 0 l 49 0 l 49 25 b 193 146 167 25 193 53 l 193 810 b 49 929 193 894 164 931 "},"Î":{"ha":535,"x_min":0,"x_max":0,"o":"m 329 1272 l 458 1049 l 438 1049 l 253 1193 l 97 1049 l 76 1049 l 204 1272 m 49 954 l 488 954 l 488 929 b 343 808 386 931 343 910 l 343 144 b 488 25 343 51 376 25 l 488 0 l 49 0 l 49 25 b 193 146 167 25 193 53 l 193 810 b 49 929 193 894 164 931 "},"Ï":{"ha":535,"x_min":0,"x_max":0,"o":"m 149 1238 b 222 1164 189 1238 222 1204 b 149 1090 222 1124 189 1090 b 75 1164 108 1090 75 1124 b 149 1238 75 1204 108 1238 m 386 1238 b 460 1164 426 1238 460 1204 b 386 1090 460 1124 426 1090 b 313 1164 346 1090 313 1124 b 386 1238 313 1204 346 1238 m 49 954 l 488 954 l 488 929 b 343 808 386 931 343 910 l 343 144 b 488 25 343 51 376 25 l 488 0 l 49 0 l 49 25 b 193 146 167 25 193 53 l 193 810 b 49 929 193 894 164 931 "},"Ì":{"ha":535,"x_min":0,"x_max":0,"o":"m 282 1272 l 353 1038 l 331 1038 l 131 1272 m 49 954 l 488 954 l 488 929 b 343 808 386 931 343 910 l 343 144 b 488 25 343 51 376 25 l 488 0 l 49 0 l 49 25 b 193 146 167 25 193 53 l 193 810 b 49 929 193 894 164 931 "},"Ñ":{"ha":1143,"x_min":0,"x_max":0,"o":"m 383 1075 b 510 1251 383 1186 435 1251 b 731 1157 606 1251 669 1157 b 796 1251 771 1157 789 1196 l 817 1251 b 688 1072 821 1140 758 1072 b 564 1121 640 1072 600 1096 b 467 1168 528 1144 497 1168 b 404 1075 429 1168 414 1138 m 1125 929 l 1088 929 b 975 794 988 929 975 914 l 975 -11 l 956 -11 l 274 757 l 274 161 b 413 25 274 60 311 24 l 413 0 l 68 0 l 68 25 b 213 143 178 22 213 61 l 213 818 b 18 929 163 900 107 929 l 18 954 l 296 954 l 913 250 l 913 819 b 811 929 913 900 892 929 l 774 929 l 774 954 l 1125 954 "},"Ó":{"ha":1071,"x_min":0,"x_max":0,"o":"m 486 1038 l 464 1038 l 535 1272 l 686 1272 m 51 476 b 535 975 51 753 267 975 b 1019 476 803 975 1019 753 b 535 -21 1019 201 803 -21 b 51 476 267 -21 51 201 m 225 476 b 535 32 225 207 346 32 b 846 476 724 32 846 207 b 535 922 846 747 724 922 b 225 476 346 922 225 747 "},"Ô":{"ha":1071,"x_min":0,"x_max":0,"o":"m 618 1272 l 747 1049 l 726 1049 l 542 1193 l 386 1049 l 365 1049 l 493 1272 m 51 476 b 535 975 51 753 267 975 b 1019 476 803 975 1019 753 b 535 -21 1019 201 803 -21 b 51 476 267 -21 51 201 m 225 476 b 535 32 225 207 346 32 b 846 476 724 32 846 207 b 535 922 846 747 724 922 b 225 476 346 922 225 747 "},"Ö":{"ha":1071,"x_min":0,"x_max":0,"o":"m 51 476 b 535 975 51 753 267 975 b 1019 476 803 975 1019 753 b 535 -21 1019 201 803 -21 b 51 476 267 -21 51 201 m 225 476 b 535 32 225 207 346 32 b 846 476 724 32 846 207 b 535 922 846 747 724 922 b 225 476 346 922 225 747 m 417 1238 b 490 1164 457 1238 490 1204 b 417 1090 490 1124 457 1090 b 343 1164 376 1090 343 1124 b 417 1238 343 1204 376 1238 m 654 1238 b 728 1164 694 1238 728 1204 b 654 1090 728 1124 694 1090 b 581 1164 614 1090 581 1124 b 654 1238 581 1204 614 1238 "},"Ò":{"ha":1071,"x_min":0,"x_max":0,"o":"m 571 1272 l 642 1038 l 619 1038 l 419 1272 m 51 476 b 535 975 51 753 267 975 b 1019 476 803 975 1019 753 b 535 -21 1019 201 803 -21 b 51 476 267 -21 51 201 m 225 476 b 535 32 225 207 346 32 b 846 476 724 32 846 207 b 535 922 846 747 724 922 b 225 476 346 922 225 747 "},"Õ":{"ha":1071,"x_min":0,"x_max":0,"o":"m 319 1075 b 446 1251 319 1186 371 1251 b 667 1157 542 1251 606 1157 b 732 1251 707 1157 725 1196 l 753 1251 b 624 1072 757 1140 694 1072 b 500 1121 576 1072 536 1096 b 403 1168 464 1144 433 1168 b 340 1075 365 1168 350 1138 m 51 476 b 535 975 51 753 267 975 b 1019 476 803 975 1019 753 b 535 -21 1019 201 803 -21 b 51 476 267 -21 51 201 m 225 476 b 535 32 225 207 346 32 b 846 476 724 32 846 207 b 535 922 846 747 724 922 b 225 476 346 922 225 747 "},"Š":{"ha":767,"x_min":0,"x_max":0,"o":"m 322 1049 l 193 1272 l 214 1272 l 399 1128 l 554 1272 l 575 1272 l 447 1049 m 649 658 l 622 658 b 369 922 607 807 496 922 b 204 782 278 922 204 860 b 250 682 204 738 221 711 b 622 428 311 621 531 519 b 706 243 681 369 706 303 b 413 -21 706 97 575 -21 b 168 29 290 -21 217 29 b 111 -21 143 29 125 14 l 86 -21 l 86 300 l 111 300 b 386 32 140 146 229 32 b 568 183 492 32 568 96 b 514 304 568 226 550 268 b 151 554 422 396 218 488 b 81 728 101 604 81 668 b 350 975 81 868 197 975 b 483 950 408 975 450 963 b 569 924 518 936 544 924 b 622 975 593 924 610 940 l 649 975 "},"Ú":{"ha":1143,"x_min":0,"x_max":0,"o":"m 550 1038 l 528 1038 l 599 1272 l 750 1272 m 44 954 l 471 954 l 471 929 b 339 808 372 928 339 901 l 339 290 b 600 39 339 142 429 39 b 910 347 808 39 910 143 l 910 813 b 767 929 910 894 874 933 l 767 954 l 1117 954 l 1117 929 b 969 808 1000 931 969 900 l 969 331 b 588 -21 969 133 839 -21 b 189 315 307 -21 189 124 l 189 769 b 44 929 189 892 172 932 "},"Û":{"ha":1143,"x_min":0,"x_max":0,"o":"m 661 1272 l 790 1049 l 769 1049 l 585 1193 l 429 1049 l 408 1049 l 536 1272 m 44 954 l 471 954 l 471 929 b 339 808 372 928 339 901 l 339 290 b 600 39 339 142 429 39 b 910 347 808 39 910 143 l 910 813 b 767 929 910 894 874 933 l 767 954 l 1117 954 l 1117 929 b 969 808 1000 931 969 900 l 969 331 b 588 -21 969 133 839 -21 b 189 315 307 -21 189 124 l 189 769 b 44 929 189 892 172 932 "},"Ü":{"ha":1143,"x_min":0,"x_max":0,"o":"m 453 1238 b 526 1164 493 1238 526 1204 b 453 1090 526 1124 493 1090 b 379 1164 413 1090 379 1124 b 453 1238 379 1204 413 1238 m 690 1238 b 764 1164 731 1238 764 1204 b 690 1090 764 1124 731 1090 b 617 1164 650 1090 617 1124 b 690 1238 617 1204 650 1238 m 44 954 l 471 954 l 471 929 b 339 808 372 928 339 901 l 339 290 b 600 39 339 142 429 39 b 910 347 808 39 910 143 l 910 813 b 767 929 910 894 874 933 l 767 954 l 1117 954 l 1117 929 b 969 808 1000 931 969 900 l 969 331 b 588 -21 969 133 839 -21 b 189 315 307 -21 189 124 l 189 769 b 44 929 189 892 172 932 "},"Ù":{"ha":1143,"x_min":0,"x_max":0,"o":"m 614 1272 l 685 1038 l 663 1038 l 463 1272 m 44 954 l 471 954 l 471 929 b 339 808 372 928 339 901 l 339 290 b 600 39 339 142 429 39 b 910 347 808 39 910 143 l 910 813 b 767 929 910 894 874 933 l 767 954 l 1117 954 l 1117 929 b 969 808 1000 931 969 900 l 969 331 b 588 -21 969 133 839 -21 b 189 315 307 -21 189 124 l 189 769 b 44 929 189 892 172 932 "},"Ý":{"ha":1071,"x_min":0,"x_max":0,"o":"m 514 1038 l 492 1038 l 563 1272 l 714 1272 m 1054 929 b 835 758 976 929 926 903 l 613 410 l 613 144 b 758 25 613 49 649 25 l 758 0 l 315 0 l 315 25 b 463 160 438 22 463 60 l 463 400 l 168 838 b 17 929 114 918 90 929 l 17 954 l 440 954 l 440 929 b 332 892 351 929 332 918 b 376 789 332 868 347 833 l 586 474 l 768 758 b 832 889 814 831 832 868 b 732 929 832 918 794 929 l 732 954 l 1054 954 "},"Ÿ":{"ha":1071,"x_min":0,"x_max":0,"o":"m 417 1238 b 490 1164 457 1238 490 1204 b 417 1090 490 1124 457 1090 b 343 1164 376 1090 343 1124 b 417 1238 343 1204 376 1238 m 654 1238 b 728 1164 694 1238 728 1204 b 654 1090 728 1124 694 1090 b 581 1164 614 1090 581 1124 b 654 1238 581 1204 614 1238 m 1054 929 b 835 758 976 929 926 903 l 613 410 l 613 144 b 758 25 613 49 649 25 l 758 0 l 315 0 l 315 25 b 463 160 438 22 463 60 l 463 400 l 168 838 b 17 929 114 918 90 929 l 17 954 l 440 954 l 440 929 b 332 892 351 929 332 918 b 376 789 332 868 347 833 l 586 474 l 768 758 b 832 889 814 831 832 868 b 732 929 832 918 794 929 l 732 954 l 1054 954 "},"Ž":{"ha":926,"x_min":0,"x_max":0,"o":"m 401 1049 l 272 1272 l 293 1272 l 478 1128 l 633 1272 l 654 1272 l 526 1049 m 886 954 l 238 60 l 640 60 b 872 254 790 60 826 93 l 896 254 l 853 0 l 29 0 l 29 25 l 661 899 l 349 899 b 140 718 196 899 158 871 l 115 718 l 129 954 "},"á":{"ha":694,"x_min":0,"x_max":0,"o":"m 271 740 l 249 740 l 319 975 l 471 975 m 672 86 b 515 -19 603 8 565 -19 b 426 99 463 -19 419 24 b 199 -19 342 17 271 -19 b 56 138 118 -19 56 50 b 94 249 56 182 68 215 b 240 343 121 283 169 310 b 426 419 299 371 360 397 l 426 479 b 301 631 426 593 392 631 b 194 529 226 631 194 588 b 196 496 194 522 196 504 b 142 439 196 463 174 439 b 82 497 106 439 82 463 b 332 660 82 594 182 660 b 540 489 474 660 540 606 l 540 129 b 581 64 540 82 551 64 b 672 121 608 64 635 81 m 426 382 b 174 174 231 301 174 254 b 278 60 174 110 219 60 b 426 129 325 60 371 81 "},"â":{"ha":694,"x_min":0,"x_max":0,"o":"m 382 975 l 511 751 l 490 751 l 306 896 l 150 751 l 129 751 l 257 975 m 672 86 b 515 -19 603 8 565 -19 b 426 99 463 -19 419 24 b 199 -19 342 17 271 -19 b 56 138 118 -19 56 50 b 94 249 56 182 68 215 b 240 343 121 283 169 310 b 426 419 299 371 360 397 l 426 479 b 301 631 426 593 392 631 b 194 529 226 631 194 588 b 196 496 194 522 196 504 b 142 439 196 463 174 439 b 82 497 106 439 82 463 b 332 660 82 594 182 660 b 540 489 474 660 540 606 l 540 129 b 581 64 540 82 551 64 b 672 121 608 64 635 81 m 426 382 b 174 174 231 301 174 254 b 278 60 174 110 219 60 b 426 129 325 60 371 81 "},"ä":{"ha":694,"x_min":0,"x_max":0,"o":"m 672 86 b 515 -19 603 8 565 -19 b 426 99 463 -19 419 24 b 199 -19 342 17 271 -19 b 56 138 118 -19 56 50 b 94 249 56 182 68 215 b 240 343 121 283 169 310 b 426 419 299 371 360 397 l 426 479 b 301 631 426 593 392 631 b 194 529 226 631 194 588 b 196 496 194 522 196 504 b 142 439 196 463 174 439 b 82 497 106 439 82 463 b 332 660 82 594 182 660 b 540 489 474 660 540 606 l 540 129 b 581 64 540 82 551 64 b 672 121 608 64 635 81 m 426 382 b 174 174 231 301 174 254 b 278 60 174 110 219 60 b 426 129 325 60 371 81 m 201 940 b 275 867 242 940 275 907 b 201 793 275 826 242 793 b 128 867 161 793 128 826 b 201 940 128 907 161 940 m 439 940 b 513 867 479 940 513 907 b 439 793 513 826 479 793 b 365 867 399 793 365 826 b 439 940 365 907 399 940 "},"à":{"ha":694,"x_min":0,"x_max":0,"o":"m 321 975 l 392 740 l 369 740 l 169 975 m 672 86 b 515 -19 603 8 565 -19 b 426 99 463 -19 419 24 b 199 -19 342 17 271 -19 b 56 138 118 -19 56 50 b 94 249 56 182 68 215 b 240 343 121 283 169 310 b 426 419 299 371 360 397 l 426 479 b 301 631 426 593 392 631 b 194 529 226 631 194 588 b 196 496 194 522 196 504 b 142 439 196 463 174 439 b 82 497 106 439 82 463 b 332 660 82 594 182 660 b 540 489 474 660 540 606 l 540 129 b 581 64 540 82 551 64 b 672 121 608 64 635 81 m 426 382 b 174 174 231 301 174 254 b 278 60 174 110 219 60 b 426 129 325 60 371 81 "},"å":{"ha":694,"x_min":0,"x_max":0,"o":"m 321 975 b 450 846 392 975 450 917 b 321 717 450 775 392 717 b 192 846 250 717 192 775 b 321 975 192 917 250 975 m 321 926 b 240 846 276 926 240 890 b 321 765 240 801 276 765 b 401 846 365 765 401 801 b 321 926 401 890 365 926 m 672 86 b 515 -19 603 8 565 -19 b 426 99 463 -19 419 24 b 199 -19 342 17 271 -19 b 56 138 118 -19 56 50 b 94 249 56 182 68 215 b 240 343 121 283 169 310 b 426 419 299 371 360 397 l 426 479 b 301 631 426 593 392 631 b 194 529 226 631 194 588 b 196 496 194 522 196 504 b 142 439 196 463 174 439 b 82 497 106 439 82 463 b 332 660 82 594 182 660 b 540 489 474 660 540 606 l 540 129 b 581 64 540 82 551 64 b 672 121 608 64 635 81 m 426 382 b 174 174 231 301 174 254 b 278 60 174 110 219 60 b 426 129 325 60 371 81 "},"ã":{"ha":694,"x_min":0,"x_max":0,"o":"m 104 778 b 231 954 104 889 156 954 b 451 860 326 954 390 860 b 517 954 492 860 510 899 l 538 954 b 408 775 542 843 479 775 b 285 824 361 775 321 799 b 188 871 249 847 218 871 b 125 778 150 871 135 840 m 672 86 b 515 -19 603 8 565 -19 b 426 99 463 -19 419 24 b 199 -19 342 17 271 -19 b 56 138 118 -19 56 50 b 94 249 56 182 68 215 b 240 343 121 283 169 310 b 426 419 299 371 360 397 l 426 479 b 301 631 426 593 392 631 b 194 529 226 631 194 588 b 196 496 194 522 196 504 b 142 439 196 463 174 439 b 82 497 106 439 82 463 b 332 660 82 594 182 660 b 540 489 474 660 540 606 l 540 129 b 581 64 540 82 551 64 b 672 121 608 64 635 81 m 426 382 b 174 174 231 301 174 254 b 278 60 174 110 219 60 b 426 129 325 60 371 81 "},"ç":{"ha":608,"x_min":0,"x_max":0,"o":"m 589 240 b 328 -19 551 88 449 -14 l 324 -25 b 418 -124 381 -29 418 -68 b 258 -244 418 -194 356 -244 b 192 -242 235 -244 213 -242 l 199 -218 b 311 -153 264 -222 311 -193 b 232 -99 311 -118 278 -92 l 286 -18 b 33 314 138 -1 33 133 b 350 660 33 515 165 660 b 572 508 467 660 572 588 b 506 454 572 476 544 454 b 447 476 485 454 461 463 b 404 590 424 500 442 553 b 326 618 386 608 363 618 b 144 379 217 618 144 522 b 368 93 144 207 233 93 b 567 250 465 93 536 150 "},"é":{"ha":608,"x_min":0,"x_max":0,"o":"m 256 740 l 233 740 l 304 975 l 456 975 m 569 226 b 311 -19 539 74 440 -19 b 39 313 172 -19 39 89 b 326 660 39 521 154 660 b 569 400 471 660 569 554 l 133 400 b 364 90 125 246 221 90 b 549 238 451 90 514 140 m 426 443 b 289 611 422 549 371 611 b 136 443 207 611 146 543 "},"ê":{"ha":608,"x_min":0,"x_max":0,"o":"m 367 975 l 496 751 l 475 751 l 290 896 l 135 751 l 114 751 l 242 975 m 569 226 b 311 -19 539 74 440 -19 b 39 313 172 -19 39 89 b 326 660 39 521 154 660 b 569 400 471 660 569 554 l 133 400 b 364 90 125 246 221 90 b 549 238 451 90 514 140 m 426 443 b 289 611 422 549 371 611 b 136 443 207 611 146 543 "},"ë":{"ha":608,"x_min":0,"x_max":0,"o":"m 569 226 b 311 -19 539 74 440 -19 b 39 313 172 -19 39 89 b 326 660 39 521 154 660 b 569 400 471 660 569 554 l 133 400 b 364 90 125 246 221 90 b 549 238 451 90 514 140 m 426 443 b 289 611 422 549 371 611 b 136 443 207 611 146 543 m 186 940 b 260 867 226 940 260 907 b 186 793 260 826 226 793 b 113 867 146 793 113 826 b 186 940 113 907 146 940 m 424 940 b 497 867 464 940 497 907 b 424 793 497 826 464 793 b 350 867 383 793 350 826 b 424 940 350 907 383 940 "},"è":{"ha":608,"x_min":0,"x_max":0,"o":"m 326 975 l 397 740 l 375 740 l 175 975 m 569 226 b 311 -19 539 74 440 -19 b 39 313 172 -19 39 89 b 326 660 39 521 154 660 b 569 400 471 660 569 554 l 133 400 b 364 90 125 246 221 90 b 549 238 451 90 514 140 m 426 443 b 289 611 422 549 371 611 b 136 443 207 611 146 543 "},"í":{"ha":376,"x_min":0,"x_max":0,"o":"m 139 740 l 117 740 l 188 975 l 339 975 m 136 479 b 69 568 136 532 115 568 b 54 567 64 568 58 568 b 40 561 50 567 46 564 l 32 586 l 225 660 l 250 660 l 250 154 b 344 25 250 57 271 28 l 344 0 l 32 0 l 32 25 l 33 25 b 136 154 111 25 136 56 l 136 479 "},"î":{"ha":376,"x_min":0,"x_max":0,"o":"m 250 975 l 379 751 l 358 751 l 174 896 l 18 751 l -3 751 l 125 975 m 136 479 b 69 568 136 532 115 568 b 54 567 64 568 58 568 b 40 561 50 567 46 564 l 32 586 l 225 660 l 250 660 l 250 154 b 344 25 250 57 271 28 l 344 0 l 32 0 l 32 25 l 33 25 b 136 154 111 25 136 56 l 136 479 "},"ï":{"ha":376,"x_min":0,"x_max":0,"o":"m 69 940 b 143 867 110 940 143 907 b 69 793 143 826 110 793 b -4 867 29 793 -4 826 b 69 940 -4 907 29 940 m 307 940 b 381 867 347 940 381 907 b 307 793 381 826 347 793 b 233 867 267 793 233 826 b 307 940 233 907 267 940 m 136 479 b 69 568 136 532 115 568 b 54 567 64 568 58 568 b 40 561 50 567 46 564 l 32 586 l 225 660 l 250 660 l 250 154 b 344 25 250 57 271 28 l 344 0 l 32 0 l 32 25 l 33 25 b 136 154 111 25 136 56 l 136 479 "},"ì":{"ha":376,"x_min":0,"x_max":0,"o":"m 210 975 l 281 740 l 258 740 l 58 975 m 136 479 b 69 568 136 532 115 568 b 54 567 64 568 58 568 b 40 561 50 567 46 564 l 32 586 l 225 660 l 250 660 l 250 154 b 344 25 250 57 271 28 l 344 0 l 32 0 l 32 25 l 33 25 b 136 154 111 25 136 56 l 136 479 "},"ñ":{"ha":767,"x_min":0,"x_max":0,"o":"m 168 778 b 294 954 168 889 219 954 b 515 860 390 954 454 860 b 581 954 556 860 574 899 l 601 954 b 472 775 606 843 543 775 b 349 824 425 775 385 799 b 251 871 313 847 282 871 b 189 778 214 871 199 840 m 135 485 b 79 568 135 528 119 568 b 58 567 71 568 65 568 b 35 557 51 564 44 561 l 25 583 l 225 660 l 249 660 l 249 524 b 468 660 344 628 396 660 b 638 449 582 660 638 561 l 638 154 b 736 25 638 56 660 28 l 736 0 l 411 0 l 411 25 b 524 154 508 24 524 61 l 524 457 b 414 578 524 521 481 578 b 249 485 358 578 308 550 l 249 154 b 354 25 249 54 272 26 l 354 0 l 35 0 l 35 25 b 135 154 129 32 135 69 l 135 485 "},"ó":{"ha":767,"x_min":0,"x_max":0,"o":"m 335 740 l 313 740 l 383 975 l 535 975 m 706 343 b 372 -19 706 147 551 -19 b 63 304 203 -19 63 126 b 396 660 63 496 217 660 b 706 343 563 660 706 514 m 581 285 b 363 611 581 471 488 611 b 188 360 256 611 188 514 b 404 29 188 203 263 29 b 581 285 510 29 581 131 "},"ô":{"ha":767,"x_min":0,"x_max":0,"o":"m 446 975 l 575 751 l 554 751 l 369 896 l 214 751 l 193 751 l 321 975 m 706 343 b 372 -19 706 147 551 -19 b 63 304 203 -19 63 126 b 396 660 63 496 217 660 b 706 343 563 660 706 514 m 581 285 b 363 611 581 471 488 611 b 188 360 256 611 188 514 b 404 29 188 203 263 29 b 581 285 510 29 581 131 "},"ö":{"ha":767,"x_min":0,"x_max":0,"o":"m 706 343 b 372 -19 706 147 551 -19 b 63 304 203 -19 63 126 b 396 660 63 496 217 660 b 706 343 563 660 706 514 m 581 285 b 363 611 581 471 488 611 b 188 360 256 611 188 514 b 404 29 188 203 263 29 b 581 285 510 29 581 131 m 265 940 b 339 867 306 940 339 907 b 265 793 339 826 306 793 b 192 867 225 793 192 826 b 265 940 192 907 225 940 m 503 940 b 576 867 543 940 576 907 b 503 793 576 826 543 793 b 429 867 463 793 429 826 b 503 940 429 907 463 940 "},"ò":{"ha":767,"x_min":0,"x_max":0,"o":"m 406 975 l 476 740 l 454 740 l 254 975 m 706 343 b 372 -19 706 147 551 -19 b 63 304 203 -19 63 126 b 396 660 63 496 217 660 b 706 343 563 660 706 514 m 581 285 b 363 611 581 471 488 611 b 188 360 256 611 188 514 b 404 29 188 203 263 29 b 581 285 510 29 581 131 "},"õ":{"ha":767,"x_min":0,"x_max":0,"o":"m 168 778 b 294 954 168 889 219 954 b 515 860 390 954 454 860 b 581 954 556 860 574 899 l 601 954 b 472 775 606 843 543 775 b 349 824 425 775 385 799 b 251 871 313 847 282 871 b 189 778 214 871 199 840 m 706 343 b 372 -19 706 147 551 -19 b 63 304 203 -19 63 126 b 396 660 63 496 217 660 b 706 343 563 660 706 514 m 581 285 b 363 611 581 471 488 611 b 188 360 256 611 188 514 b 404 29 188 203 263 29 b 581 285 510 29 581 131 "},"š":{"ha":535,"x_min":0,"x_max":0,"o":"m 206 751 l 76 975 l 97 975 l 282 831 l 438 975 l 458 975 l 331 751 m 68 476 b 261 660 68 582 150 660 b 335 649 292 660 314 654 b 390 636 354 642 372 636 b 417 644 400 636 411 640 l 442 644 l 442 449 l 417 449 b 258 621 401 551 339 621 b 147 539 197 621 147 585 b 175 467 147 506 161 481 b 435 300 247 394 356 379 b 489 172 467 268 489 228 b 282 -19 489 32 353 -19 b 126 10 215 -19 150 10 b 101 0 115 10 106 6 l 72 0 l 72 217 l 96 217 b 283 24 110 103 185 24 b 390 118 340 24 390 67 b 351 207 390 157 381 178 b 111 368 303 256 168 311 b 68 476 81 399 68 426 "},"ú":{"ha":767,"x_min":0,"x_max":0,"o":"m 335 740 l 313 740 l 383 975 l 535 975 m 142 524 b 25 619 142 597 115 624 l 25 644 l 256 644 l 256 188 b 283 104 256 153 263 129 b 361 69 301 83 328 69 b 526 154 415 69 475 100 l 526 536 b 418 619 526 592 497 624 l 418 644 l 640 644 l 640 153 b 701 74 640 115 658 74 b 747 85 715 74 725 76 l 747 58 l 553 -17 l 526 -17 l 526 119 l 524 119 b 307 -19 447 25 375 -19 b 142 165 204 -19 142 65 l 142 524 "},"û":{"ha":767,"x_min":0,"x_max":0,"o":"m 446 975 l 575 751 l 554 751 l 369 896 l 214 751 l 193 751 l 321 975 m 142 524 b 25 619 142 597 115 624 l 25 644 l 256 644 l 256 188 b 283 104 256 153 263 129 b 361 69 301 83 328 69 b 526 154 415 69 475 100 l 526 536 b 418 619 526 592 497 624 l 418 644 l 640 644 l 640 153 b 701 74 640 115 658 74 b 747 85 715 74 725 76 l 747 58 l 553 -17 l 526 -17 l 526 119 l 524 119 b 307 -19 447 25 375 -19 b 142 165 204 -19 142 65 l 142 524 "},"ü":{"ha":767,"x_min":0,"x_max":0,"o":"m 265 940 b 339 867 306 940 339 907 b 265 793 339 826 306 793 b 192 867 225 793 192 826 b 265 940 192 907 225 940 m 503 940 b 576 867 543 940 576 907 b 503 793 576 826 543 793 b 429 867 463 793 429 826 b 503 940 429 907 463 940 m 142 524 b 25 619 142 597 115 624 l 25 644 l 256 644 l 256 188 b 283 104 256 153 263 129 b 361 69 301 83 328 69 b 526 154 415 69 475 100 l 526 536 b 418 619 526 592 497 624 l 418 644 l 640 644 l 640 153 b 701 74 640 115 658 74 b 747 85 715 74 725 76 l 747 58 l 553 -17 l 526 -17 l 526 119 l 524 119 b 307 -19 447 25 375 -19 b 142 165 204 -19 142 65 l 142 524 "},"ù":{"ha":767,"x_min":0,"x_max":0,"o":"m 406 975 l 476 740 l 454 740 l 254 975 m 142 524 b 25 619 142 597 115 624 l 25 644 l 256 644 l 256 188 b 283 104 256 153 263 129 b 361 69 301 83 328 69 b 526 154 415 69 475 100 l 526 536 b 418 619 526 592 497 624 l 418 644 l 640 644 l 640 153 b 701 74 640 115 658 74 b 747 85 715 74 725 76 l 747 58 l 553 -17 l 526 -17 l 526 119 l 524 119 b 307 -19 447 25 375 -19 b 142 165 204 -19 142 65 l 142 524 "},"ý":{"ha":694,"x_min":0,"x_max":0,"o":"m 319 740 l 297 740 l 368 975 l 519 975 m 310 644 l 310 619 b 235 568 256 619 235 607 b 249 513 235 551 240 531 l 406 161 l 544 536 b 554 578 550 553 554 567 b 489 619 554 607 535 615 l 489 644 l 674 644 l 674 619 b 599 539 640 615 618 590 l 379 -51 b 143 -294 319 -218 242 -294 b 50 -218 88 -294 50 -262 b 122 -154 50 -181 79 -154 b 218 -181 163 -154 189 -181 b 331 -42 258 -181 293 -133 l 353 14 l 129 513 b 22 619 96 586 65 615 l 22 644 "},"ÿ":{"ha":694,"x_min":0,"x_max":0,"o":"m 250 940 b 324 867 290 940 324 907 b 250 793 324 826 290 793 b 176 867 210 793 176 826 b 250 940 176 907 210 940 m 488 940 b 561 867 528 940 561 907 b 488 793 561 826 528 793 b 414 867 447 793 414 826 b 488 940 414 907 447 940 m 310 644 l 310 619 b 235 568 256 619 235 607 b 249 513 235 551 240 531 l 406 161 l 544 536 b 554 578 550 553 554 567 b 489 619 554 607 535 615 l 489 644 l 674 644 l 674 619 b 599 539 640 615 618 590 l 379 -51 b 143 -294 319 -218 242 -294 b 50 -218 88 -294 50 -262 b 122 -154 50 -181 79 -154 b 218 -181 163 -154 189 -181 b 331 -42 258 -181 293 -133 l 353 14 l 129 513 b 22 619 96 586 65 615 l 22 644 "},"ž":{"ha":608,"x_min":0,"x_max":0,"o":"m 243 751 l 114 975 l 135 975 l 319 831 l 475 975 l 496 975 l 368 751 m 582 644 l 582 621 l 169 47 l 403 47 b 549 194 514 47 549 86 l 575 194 l 567 0 l 19 0 l 19 25 l 431 597 l 207 597 b 89 475 128 597 97 575 l 65 475 l 65 644 "},"ﬁ":{"ha":767,"x_min":0,"x_max":0,"o":"m 642 136 b 749 25 642 58 664 21 l 749 0 l 414 0 l 414 25 b 528 156 497 25 528 40 l 528 510 b 439 601 528 583 510 601 l 251 601 l 251 156 b 357 25 251 46 274 25 l 357 0 l 25 0 l 25 25 b 138 156 110 22 138 46 l 138 601 l 25 601 l 25 644 l 138 644 b 428 996 129 892 272 996 b 626 871 535 996 626 938 b 574 815 626 840 603 815 b 390 953 492 815 489 953 b 251 740 307 953 251 889 l 251 644 l 550 644 b 618 651 588 644 600 646 l 642 651 "},"ﬂ":{"ha":767,"x_min":0,"x_max":0,"o":"m 640 153 b 747 25 640 44 663 25 l 747 0 l 415 0 l 415 25 b 526 153 504 25 526 46 l 526 601 l 251 601 l 251 153 b 360 25 251 44 278 25 l 360 0 l 26 0 l 26 25 b 138 153 107 25 138 35 l 138 601 l 26 601 l 26 644 l 138 644 b 386 996 125 889 257 996 b 519 946 438 996 482 979 l 615 996 l 640 996 m 526 856 l 524 856 b 485 829 517 838 501 829 b 338 947 421 829 410 947 b 251 788 274 947 251 881 l 251 644 l 526 644 "},"¹":{"ha":406,"x_min":0,"x_max":0,"o":"m 222 969 l 249 969 l 249 540 b 318 486 249 492 261 486 l 318 465 l 92 465 l 92 486 b 163 540 144 486 163 489 l 163 836 b 140 903 163 890 158 903 b 96 889 128 903 119 900 l 83 908 "},"²":{"ha":406,"x_min":0,"x_max":0,"o":"m 28 828 b 193 969 53 926 103 969 b 360 839 285 969 360 911 b 114 529 360 760 307 685 l 114 526 l 281 526 b 365 565 332 526 351 538 l 397 565 l 353 465 l 13 465 l 13 483 b 275 804 222 650 275 725 b 165 904 275 861 228 904 b 60 828 118 904 83 881 "},"³":{"ha":406,"x_min":0,"x_max":0,"o":"m 44 860 b 200 969 79 942 135 969 b 335 864 276 969 335 924 b 265 758 335 828 313 794 b 363 626 328 736 363 688 b 131 457 363 529 264 457 b 36 499 72 457 36 474 b 75 529 36 514 56 529 b 197 494 113 529 157 494 b 288 589 249 494 288 535 b 126 706 288 658 231 710 l 126 726 b 254 833 210 739 254 776 b 167 910 254 878 218 910 b 71 849 122 910 96 892 "},"∆":{"ha":807,"x_min":0,"x_max":0,"o":"m 43 0 l 43 35 l 372 949 l 422 964 l 761 35 l 761 0 m 363 774 l 115 65 l 617 65 "},"Ω":{"ha":908,"x_min":0,"x_max":0,"o":"m 835 0 l 538 0 l 528 24 b 686 528 583 149 688 336 b 453 922 685 817 572 922 b 221 522 325 922 221 821 b 376 24 221 336 311 161 l 367 0 l 71 0 l 42 194 l 76 196 b 174 94 101 108 124 94 l 301 94 b 88 532 222 171 88 311 b 456 964 88 797 250 964 b 819 542 665 964 819 806 b 600 94 819 340 692 193 l 736 94 b 831 196 788 94 803 106 l 865 194 "},"μ":{"ha":724,"x_min":0,"x_max":0,"o":"m 200 644 l 200 222 b 240 89 200 151 213 113 b 300 67 257 75 279 67 b 471 161 357 67 414 97 l 471 644 l 585 644 l 585 142 b 628 57 585 97 592 57 b 685 143 657 57 676 86 l 714 143 b 689 44 710 94 704 72 b 575 -19 667 4 624 -19 b 471 114 508 -19 479 21 b 244 -19 389 18 322 -19 b 139 40 196 -19 168 -4 l 136 40 l 136 7 b 158 -144 136 -36 139 -58 b 168 -218 165 -174 168 -199 b 104 -294 168 -264 144 -294 b 43 -219 68 -294 43 -264 b 53 -147 43 -197 46 -174 b 74 -60 60 -118 67 -89 b 81 -19 76 -53 78 -56 b 86 67 85 28 86 51 l 86 644 "},"π":{"ha":722,"x_min":0,"x_max":0,"o":"m 688 633 b 642 511 678 581 658 536 b 554 506 621 506 590 506 b 549 189 547 419 549 283 b 604 64 549 107 564 64 b 668 103 631 64 646 76 l 686 75 b 551 -17 653 14 600 -17 b 435 161 485 -17 435 19 b 449 508 435 288 442 397 b 256 511 378 510 310 511 l 256 486 b 171 7 256 169 190 33 b 90 -17 147 -4 113 -15 l 82 7 b 204 514 179 135 204 371 b 39 454 118 514 88 490 l 19 485 b 240 604 56 528 106 606 b 578 600 336 604 453 600 b 654 644 619 600 635 607 "},"€":{"ha":694,"x_min":0,"x_max":0,"o":"m 576 525 l 186 525 l 186 468 l 558 468 l 543 415 l 186 415 b 406 40 189 288 240 40 b 650 193 531 40 582 100 l 671 179 b 378 -15 597 63 524 -15 b 54 415 149 -15 69 226 l -14 415 l 1 468 l 51 468 b 53 525 51 488 51 506 l -14 525 l 1 578 l 58 578 b 424 969 86 775 203 969 b 654 910 504 969 583 947 l 654 707 l 628 707 b 424 925 618 832 560 925 b 190 578 256 925 204 710 l 592 578 "},"ℓ":{"ha":532,"x_min":0,"x_max":0,"o":"m 510 136 b 296 -14 461 40 389 -14 b 163 39 232 -14 189 6 b 119 238 133 79 119 122 l 119 354 l 46 296 l 29 329 l 119 404 l 119 583 b 186 944 119 804 132 876 b 301 1013 219 989 258 1013 b 419 831 379 1013 419 933 b 233 429 419 667 338 542 l 233 296 b 344 64 233 115 271 64 b 483 158 404 64 447 106 m 233 493 b 351 831 303 581 351 711 b 294 971 351 915 332 971 b 233 661 249 971 233 896 "},"℮":{"ha":1188,"x_min":0,"x_max":0,"o":"m 254 463 b 247 456 250 463 247 460 l 247 188 b 258 157 247 176 251 167 b 593 11 344 68 463 11 b 946 175 735 11 860 76 l 1025 175 b 592 -15 928 60 768 -15 b 46 475 290 -15 46 204 b 592 967 46 747 290 967 b 1140 475 894 967 1140 747 l 1140 463 m 939 767 b 926 799 939 778 935 790 b 593 938 840 883 724 938 b 260 794 464 938 346 882 b 247 761 251 785 247 774 l 247 497 b 254 488 247 494 250 488 l 933 488 b 939 497 938 488 939 494 "},"∂":{"ha":676,"x_min":0,"x_max":0,"o":"m 338 586 b 504 497 394 586 461 560 b 515 646 508 542 514 593 b 483 861 518 714 510 790 b 315 988 458 922 397 988 b 143 914 249 988 188 951 b 104 999 122 911 93 968 b 281 1054 147 1029 208 1054 b 546 858 403 1054 488 981 b 610 538 597 753 610 622 b 549 196 610 435 593 296 b 288 -14 496 72 410 -14 b 56 257 149 -14 56 86 b 131 485 56 351 90 432 b 336 586 176 542 254 586 m 363 533 b 229 453 313 533 268 513 b 171 192 190 386 171 285 b 288 26 169 101 213 26 b 431 174 353 26 401 104 b 493 439 465 256 479 329 b 364 533 478 475 429 533 "},"∏":{"ha":875,"x_min":0,"x_max":0,"o":"m 839 915 b 722 815 729 907 722 897 l 722 28 b 836 -83 722 -64 732 -75 l 836 -119 l 503 -119 l 503 -83 b 606 26 599 -76 606 -69 l 606 861 b 560 906 606 900 599 906 l 313 906 b 268 867 275 906 268 901 l 268 26 b 363 -83 268 -62 267 -75 l 363 -119 l 38 -119 l 38 -83 b 151 26 140 -75 151 -65 l 151 815 b 33 915 151 897 143 907 l 33 951 l 839 951 "},"∑":{"ha":704,"x_min":0,"x_max":0,"o":"m 618 -125 l 38 -125 l 38 -92 l 325 379 l 43 918 l 43 951 l 619 951 b 635 736 621 925 628 824 l 597 729 b 557 861 586 789 574 831 b 421 907 539 896 517 907 l 189 907 l 426 463 l 138 -19 l 457 -19 b 638 136 568 -19 586 -11 l 674 126 "},"∙":{"ha":376,"x_min":0,"x_max":0,"o":"m 189 554 b 265 478 232 554 265 521 b 189 400 265 435 232 400 b 111 478 146 400 111 435 b 189 554 111 521 146 554 "},"√":{"ha":711,"x_min":0,"x_max":0,"o":"m 472 -208 l 444 -222 l 168 526 l 56 475 l 42 519 l 247 613 l 456 24 l 458 24 l 636 1225 l 689 1214 "},"∞":{"ha":983,"x_min":0,"x_max":0,"o":"m 921 393 b 722 182 921 263 825 182 b 493 329 646 182 581 224 b 256 182 426 251 358 182 b 61 389 151 182 61 268 b 265 597 61 510 149 597 b 497 451 360 597 431 533 b 731 597 557 518 621 597 b 921 394 840 597 921 515 m 267 256 b 451 385 343 256 401 326 b 260 526 397 456 346 526 b 138 386 182 526 138 464 b 265 256 138 314 192 256 m 721 526 b 535 392 640 526 578 438 b 726 256 615 297 658 256 b 844 388 801 256 844 326 b 722 526 844 472 794 526 "},"∫":{"ha":494,"x_min":0,"x_max":0,"o":"m 183 578 b 389 1150 161 1056 279 1150 b 469 1086 424 1150 469 1129 b 410 1026 469 1046 440 1026 b 340 1089 365 1026 371 1089 b 288 867 313 1089 279 1049 l 313 347 b 104 -267 335 -143 225 -267 b 24 -201 57 -267 24 -236 b 93 -136 22 -164 56 -136 b 158 -204 131 -136 131 -204 b 210 14 197 -204 217 -119 "},"≈":{"ha":685,"x_min":0,"x_max":0,"o":"m 632 544 b 468 415 599 474 543 415 b 328 467 418 415 383 433 b 218 510 290 490 257 510 b 100 417 163 510 131 465 l 49 457 b 226 585 86 533 151 585 b 361 536 286 585 329 554 b 469 492 404 510 431 492 b 582 586 518 492 549 528 m 632 319 b 468 192 599 249 543 192 b 328 243 418 192 383 210 b 218 286 289 267 257 286 b 100 192 161 286 129 240 l 49 233 b 225 361 86 310 151 361 b 360 313 288 361 329 331 b 469 267 400 289 429 267 b 582 363 519 267 549 303 "},"≠":{"ha":685,"x_min":0,"x_max":0,"o":"m 443 551 l 622 551 l 622 475 l 414 475 l 336 296 l 622 296 l 622 219 l 307 219 l 244 75 l 183 100 l 236 219 l 61 219 l 61 296 l 265 296 l 343 475 l 61 475 l 61 551 l 372 551 l 435 694 l 494 669 "},"≤":{"ha":685,"x_min":0,"x_max":0,"o":"m 68 431 l 68 513 l 619 801 l 619 710 l 147 474 l 147 471 l 619 235 l 619 142 m 63 11 l 63 90 l 624 90 l 624 11 "},"≥":{"ha":685,"x_min":0,"x_max":0,"o":"m 621 513 l 621 431 l 71 142 l 71 233 l 542 471 l 542 474 l 71 710 l 71 801 m 64 11 l 64 90 l 622 90 l 622 11 "},"◊":{"ha":717,"x_min":0,"x_max":0,"o":"m 404 -90 l 311 -90 l 64 460 l 314 1015 l 406 1015 l 653 460 m 361 929 l 357 929 l 150 463 l 357 -8 l 361 -8 l 567 460 "}," ":{"ha":347,"x_min":0,"x_max":0,"o":""},"­":{"ha":463,"x_min":0,"x_max":0,"o":"m 404 378 l 404 268 l 60 268 l 60 378 "},"ˉ":{"ha":463,"x_min":0,"x_max":0,"o":"m 447 915 l 447 814 l 15 814 l 15 915 "},"∕":{"ha":463,"x_min":0,"x_max":0,"o":"m 593 974 l -71 -39 l -131 -39 l 533 974 "},"Ω":{"ha":908,"x_min":0,"x_max":0,"o":"m 835 0 l 538 0 l 528 24 b 686 528 583 149 688 336 b 453 922 685 817 572 922 b 221 522 325 922 221 821 b 376 24 221 336 311 161 l 367 0 l 71 0 l 42 194 l 76 196 b 174 94 101 108 124 94 l 301 94 b 88 532 222 171 88 311 b 456 964 88 797 250 964 b 819 542 665 964 819 806 b 600 94 819 340 692 193 l 736 94 b 831 196 788 94 803 106 l 865 194 "}}}
